<?xml version="1.0" encoding="UTF-8"?>
<!DOCTYPE svg PUBLIC "-//W3C//DTD SVG 1.1//EN" "http://www.w3.org/Graphics/SVG/1.1/DTD/svg11.dtd">
<!-- Creator: CorelDRAW -->
<svg xmlns="http://www.w3.org/2000/svg" xml:space="preserve" width="5906px" height="2480px" version="1.1" style="shape-rendering:geometricPrecision; text-rendering:geometricPrecision; image-rendering:optimizeQuality; fill-rule:evenodd; clip-rule:evenodd"
viewBox="0 0 5906 2480.52"
 xmlns:xlink="http://www.w3.org/1999/xlink"
 xmlns:xodm="http://www.corel.com/coreldraw/odm/2003">
 <defs>
  <style type="text/css">
   <![CDATA[
    .fil0 {fill:#FEFEFE;fill-rule:nonzero}
   ]]>
  </style>
 </defs>
 <g id="Layer_x0020_1">
  <metadata id="CorelCorpID_0Corel-Layer"/>
  <path class="fil0" d="M1794.04 1161.81c-10.35,-10 -19.72,-21.5 -28.07,-33.73 -8.94,-13.06 -16.75,-26.97 -23.25,-40.56 -7.06,-14.88 -12.78,-29.91 -16.78,-43.54 -1.91,-6.46 -3.5,-12.62 -4.78,-18.47 -1.29,-5.87 -2.41,-12.09 -3.35,-18.59 -0.9,-6.35 -1.59,-12.66 -2.06,-18.94 -0.47,-6.6 -0.72,-12.85 -0.72,-18.78 0,-9.13 0.53,-18.54 1.59,-28.22 1.03,-9.69 2.54,-19.01 4.47,-27.94 1.88,-8.66 4.41,-17.76 7.57,-27.23 3.12,-9.5 6.56,-18.31 10.28,-26.47 3.78,-8.34 8.19,-16.81 13.19,-25.34 5,-8.5 10.25,-16.5 15.75,-24 5.75,-7.88 11.81,-15.32 18.16,-22.38 6.4,-7.09 13.22,-13.97 20.4,-20.53 6.75,-6.16 14.19,-12.25 22.25,-18.32 7.97,-5.94 16.04,-11.4 24.1,-16.34 8.56,-5.22 17.1,-9.91 25.6,-14.07 8.37,-4.09 17.31,-7.93 26.84,-11.56 8.88,-3.34 18.13,-6.34 27.75,-9 9.16,-2.53 18.76,-4.72 28.73,-6.53 9.68,-1.75 19.47,-3.07 29.28,-3.97 10.47,-0.94 20.25,-1.44 29.28,-1.44 9,0 18.82,0.5 29.28,1.44 9.82,0.9 19.6,2.22 29.29,3.97 9.97,1.81 19.53,4 28.72,6.53 9.59,2.66 18.84,5.66 27.72,9 9.53,3.62 18.5,7.47 26.88,11.56 8.5,4.16 17.03,8.85 25.56,14.07 8.1,4.9 16.13,10.37 24.07,16.34 8.09,6.03 15.53,12.16 22.28,18.32 7.22,6.56 14.03,13.4 20.44,20.53 6.31,7.03 12.38,14.5 18.16,22.38 5.5,7.5 10.75,15.53 15.75,24 5,8.53 9.4,17 13.19,25.34 3.72,8.16 7.15,16.97 10.28,26.47 3.15,9.47 5.69,18.57 7.56,27.23 1.94,8.93 3.44,18.25 4.47,27.97 1.06,9.65 1.59,19.09 1.59,28.19 0,65.41 -29.25,113.63 -72.53,152.95 -35.01,31.81 -78.48,56.88 -122.36,80.66 -20.62,11.19 -44.63,23.84 -62.38,33.88 -5.31,3.03 -10.93,6.4 -16.9,10.12 -5.79,3.63 -11,7.03 -15.57,10.19 -4.97,3.44 -9.81,6.97 -14.53,10.63 -4.63,3.56 -9.09,7.18 -13.38,10.87 -4.31,3.75 -8.47,7.54 -12.5,11.44 -4.25,4.13 -7.97,7.94 -11.12,11.41 -2.91,3.22 -6.22,7.19 -9.94,11.91 -3.31,4.18 -6.38,8.34 -9.16,12.44 -2.87,4.21 -5.53,8.43 -7.97,12.65 -2.65,4.6 -4.9,8.82 -6.78,12.69 -2,4.16 -3.94,8.66 -5.78,13.44 -1.59,4.16 -3.19,8.84 -4.78,14.09 -1.47,4.85 -2.75,9.85 -3.88,14.98 -1.18,5.34 -2.12,10.5 -2.84,15.5 -0.75,5.28 -1.31,10.75 -1.69,16.34 -0.38,5.19 -0.53,10.97 -0.53,17.41 0,8.09 0.37,15.69 1.12,22.75 0.79,7.35 2.04,14.78 3.66,22.35 1.75,8.03 3.72,15.34 5.91,21.97 2.28,6.81 5.09,13.94 8.47,21.38 3.34,7.34 6.9,14.22 10.62,20.59 3.85,6.53 8.19,13.1 13.01,19.66 4.62,6.31 9.68,12.5 15.15,18.59 5.44,6.03 11.19,11.82 17.19,17.29 6.44,5.84 12.85,11.18 19.19,15.93 6.44,4.82 13.41,9.51 20.85,14.04 6.87,4.22 14.34,8.25 22.34,12.15 7.94,3.88 15.75,7.29 23.47,10.19 8.19,3.1 16.44,5.78 24.69,8.07 8.47,2.34 16.88,4.28 25.25,5.78 7.63,1.37 16.22,2.5 25.79,3.31 8.68,0.78 17.59,1.16 26.72,1.16 9.12,0 18.06,-0.38 26.75,-1.16 9.53,-0.81 18.16,-1.94 25.78,-3.31 8.35,-1.5 16.79,-3.44 25.22,-5.78 8.25,-2.29 16.5,-4.97 24.69,-8.07 7.72,-2.9 15.57,-6.31 23.51,-10.19 8,-3.9 15.43,-7.93 22.31,-12.15 7.47,-4.53 14.41,-9.22 20.85,-14.04 6.37,-4.75 12.78,-10.09 19.22,-15.93 6,-5.47 11.72,-11.26 17.15,-17.29 5.5,-6.09 10.57,-12.28 15.16,-18.59 4.85,-6.56 9.19,-13.13 13,-19.66 3.75,-6.38 7.32,-13.25 10.63,-20.59 3.37,-7.44 6.22,-14.57 8.47,-21.35 2.22,-6.63 4.19,-13.97 5.94,-22 1.62,-7.57 2.84,-15 3.65,-22.35 0.75,-7.09 1.13,-14.66 1.13,-22.75 0,-7.69 -0.31,-14.66 -0.91,-20.91 -0.62,-6.41 -1.65,-13.22 -3.09,-20.44 -1.38,-6.87 -3.03,-13.63 -5.03,-20.22 -2.1,-6.97 -4.38,-13.47 -6.88,-19.5 -6.41,-15.56 -14.81,-31.53 -24.97,-46.51 -14.59,-21.5 -28.97,-37.5 -51.32,-50.72 -15.72,-9.28 -29.03,-13.31 -53.25,-21.97 -18.75,-6.69 -33.07,-19.63 -38.47,-40.72 -4.03,-15.72 -1.44,-31.44 6.94,-45.29 4.03,-6.62 8.81,-11.78 13.84,-15.75 6.03,-4.72 12.53,-7.78 18.78,-9.68 2.91,-0.91 5.72,-1.57 8.41,-2.04 9.94,-1.62 18.84,-0.47 29.35,1.5 18.65,3.54 36.4,9.63 53.16,17.79 21.72,10.56 41.69,24.66 59.75,41.12 18.75,17.07 35.44,36.82 49.79,57.79 15.25,22.31 27.9,46.22 37.65,69.91 4.35,10.57 8.01,20.72 10.97,30.5 3.07,10.1 5.66,20.54 7.79,31.23 1.97,10 3.5,20.62 4.62,31.9 1.1,11.16 1.66,21.88 1.66,32.01 0,11.47 -0.66,23.19 -1.94,35.12 -1.28,12.01 -3.16,23.6 -5.59,34.79 -2.38,10.91 -5.5,22.22 -9.38,33.88 -3.88,11.68 -8.16,22.69 -12.81,32.91 -4.75,10.5 -10.25,21.03 -16.44,31.56 -6.16,10.53 -12.72,20.53 -19.63,29.94 -7.16,9.78 -14.75,19.1 -22.69,27.91 -8,8.91 -16.53,17.47 -25.5,25.66 -8.56,7.78 -17.88,15.47 -27.91,22.97 -9.91,7.41 -19.97,14.25 -30.13,20.47 -10.62,6.47 -21.34,12.34 -32.06,17.59 -10.6,5.16 -21.85,10 -33.69,14.5 -11.19,4.22 -22.82,8.01 -34.82,11.32 -11.59,3.19 -23.59,5.94 -36.06,8.19 -12.16,2.18 -24.41,3.87 -36.76,4.97 -10.18,0.93 -20.47,1.47 -30.81,1.62 -2,0.03 -4,0.03 -6.03,0.03 -12.38,0.03 -24.66,-0.53 -36.82,-1.65 -12.34,-1.1 -24.59,-2.79 -36.75,-4.97 -12.47,-2.25 -24.5,-5 -36.07,-8.19 -12.03,-3.31 -23.65,-7.1 -34.81,-11.32 -11.85,-4.46 -23.1,-9.31 -33.69,-14.5 -10.72,-5.22 -21.41,-11.09 -32.07,-17.59 -10.19,-6.22 -20.25,-13.07 -30.16,-20.47 -10.03,-7.5 -19.34,-15.19 -27.87,-22.97 -9,-8.19 -17.51,-16.75 -25.54,-25.66 -7.9,-8.81 -15.5,-18.13 -22.65,-27.91 -6.91,-9.41 -13.47,-19.41 -19.63,-29.94 -6.19,-10.53 -11.69,-21.06 -16.44,-31.56 -4.66,-10.22 -8.94,-21.19 -12.81,-32.88 -3.88,-11.66 -7.03,-23 -9.41,-33.91 -2.41,-11.19 -4.28,-22.78 -5.56,-34.78 -1.29,-11.94 -1.94,-23.66 -1.94,-35.13 0,-8.19 0.31,-16.66 0.94,-25.44 0.59,-8.38 1.47,-16.75 2.68,-25.1 1.1,-7.62 2.57,-15.66 4.44,-24.06 1.78,-7.97 3.85,-15.88 6.22,-23.69 2.38,-7.88 4.97,-15.38 7.75,-22.53 3,-7.69 6.16,-15 9.5,-21.91 3.41,-7.06 7.07,-13.97 10.97,-20.75 3.97,-6.88 8.16,-13.57 12.57,-20.04 3.93,-5.78 8.5,-11.93 13.68,-18.5 4.82,-6.12 9.94,-12.15 15.32,-18.06 5.56,-6.16 10.97,-11.81 16.25,-16.97 5.56,-5.44 11.38,-10.75 17.41,-15.97 13.84,-12 21.59,-18.13 37.94,-29.5 6.22,-4.32 12.97,-8.75 20.22,-13.29 2.94,-1.84 6.03,-3.72 9.28,-5.65 27.1,-16.13 39.72,-22.35 68.38,-37.79 17.57,-9.47 35,-19 50.79,-28.5 18.9,-11.38 36.41,-23.16 50.91,-35.69 6.56,-5.66 12.5,-11.47 17.69,-17.44 4.78,-5.56 8.97,-11.38 12.4,-17.5 3,-5.34 5.32,-10.88 6.91,-16.66 1.53,-5.75 2.37,-11.94 2.37,-18.56 0,-5.75 -0.28,-11.03 -0.78,-15.85 -0.53,-5.03 -1.4,-10.22 -2.56,-15.53 -1.25,-5.78 -2.59,-10.88 -4.09,-15.31 -3.16,-9.54 -8.25,-20.63 -13.35,-29.29 -2.62,-4.47 -5.66,-9.06 -9.09,-13.72 -3.19,-4.37 -6.75,-8.75 -10.63,-13.03 -3.84,-4.28 -7.87,-8.34 -12.09,-12.16 -4.63,-4.25 -9.19,-8.03 -13.6,-11.31 -4.47,-3.37 -9.37,-6.69 -14.72,-9.94 -4.81,-2.9 -10.09,-5.78 -15.87,-8.59 -5.72,-2.78 -11.29,-5.22 -16.66,-7.25 -5.88,-2.19 -11.75,-4.13 -17.6,-5.75 -6.09,-1.66 -12.06,-3.03 -17.94,-4.1 -5.18,-0.93 -11.28,-1.71 -18.31,-2.34 -6.19,-0.53 -12.59,-0.81 -19.16,-0.81 -6.59,0 -12.97,0.28 -19.16,0.81 -7.03,0.63 -13.12,1.41 -18.34,2.34 -5.85,1.07 -11.85,2.44 -17.91,4.1 -5.84,1.62 -11.72,3.56 -17.59,5.75 -5.41,2.03 -10.97,4.47 -16.72,7.28 -5.75,2.78 -11.04,5.66 -15.82,8.59 -5.34,3.26 -10.28,6.57 -14.75,9.91 -4.41,3.28 -8.94,7.06 -13.56,11.31 -4.22,3.82 -8.25,7.88 -12.1,12.13 -3.87,4.31 -7.43,8.69 -10.62,13.03 -3.44,4.69 -6.47,9.28 -9.1,13.75 -2.59,4.38 -5.06,9.16 -7.43,14.38 -2.41,5.34 -4.41,10.31 -5.91,14.91 -1.5,4.44 -2.85,9.53 -4.1,15.31 -1.15,5.35 -2.03,10.53 -2.56,15.54 -0.5,4.81 -0.78,10.09 -0.78,15.84 0,4.13 0.13,7.75 0.34,10.85 0.22,3.5 0.6,6.93 1.07,10.31 0.47,3.25 1.12,6.72 1.9,10.34 0.85,3.85 1.69,7.25 2.53,10.16 2.16,7.35 5.54,16.16 9.88,25.35 2.38,5 5.03,10.09 7.88,15.03 6.28,10.84 14.22,20.38 26.5,32.47 32.25,31.75 25.63,68.85 7.44,86.94 -21.5,21.35 -55.91,32.6 -97.32,-8.84l0 0zm1520.31 94.57c0,-118.39 0.16,-237.05 0.16,-355.16l0 -8.53c0,-13.66 -1.29,-27.32 -3.85,-40.75 -2.56,-13.47 -6.37,-26.54 -11.37,-39.04 -4.97,-12.44 -11.25,-24.41 -18.72,-35.78 -3.91,-5.97 -8.13,-11.66 -12.6,-17.13 -5.41,-6.56 -9.34,-10.78 -15.72,-17.09 -8.63,-8.57 -18.38,-16.07 -28.6,-22.88 -11.31,-7.47 -23.31,-13.82 -35.84,-18.91 -12.35,-5 -25.38,-8.87 -38.94,-11.47 -13.35,-2.59 -26.94,-3.9 -40.69,-3.9l-506.83 0c-6.62,0 -13.31,1.21 -19.66,3.49 -15.5,5.57 -29.06,17.32 -35.44,32.51 -3,7.09 -4.72,14.84 -4.72,23.22 0,8.28 1.69,16.09 4.76,23.28 3.21,7.53 7.9,14.13 13.75,19.63 5.53,5.22 12.06,9.31 19.22,12.09 7.09,2.75 14.56,4.19 22.09,4.19l506.55 0c5.78,0 11.22,0.56 16.25,1.59 5.5,1.16 10.87,2.88 16.03,5.1 5.37,2.31 10.56,5.19 15.47,8.53 5.12,3.5 9.88,7.41 14.16,11.69 4.37,4.37 8.22,9 11.5,13.81 2.56,3.78 4.87,7.78 6.84,11.91l1.47 3.47c2.16,5.09 3.81,10.37 4.94,15.78 1,5 1.53,10.5 1.53,16.47 0,122.7 0.38,245.96 0.47,368.97 0.06,56.07 -0.16,112.17 -0.25,168.26l-0.03 248.06 -594.93 0c-7.25,0 -14.34,1.31 -21,3.75 -6.78,2.5 -13.06,6.22 -18.5,10.97 -5.97,5.18 -10.88,11.47 -14.38,18.65 -1.37,2.85 -2.53,5.82 -3.43,8.91 -2.63,9.07 -2.94,16.72 -1.85,25.91 2.5,21.16 17.07,37.94 36.54,45.72 6.75,2.69 15.22,4.5 22.62,4.5l653.62 0c7.75,0 14.94,-1.5 21.5,-4.06 7.38,-2.87 13.6,-6.94 18.69,-11.63 6.13,-5.62 10.66,-12.43 13.75,-19.22 3.82,-8.28 5.6,-17 5.6,-23.75 0,-102.26 -0.16,-204.86 -0.19,-307.34 -0.03,-57.94 0.03,-115.88 0.03,-173.82l0 0zm-1668.42 0c0,-118.39 0.16,-237.05 0.16,-355.16l0 -8.53c0,-13.66 -1.32,-27.32 -3.85,-40.75 -2.56,-13.47 -6.37,-26.54 -11.37,-39.04 -4.97,-12.44 -11.25,-24.41 -18.72,-35.78 -3.91,-5.97 -8.13,-11.66 -12.6,-17.13 -5.4,-6.56 -9.34,-10.78 -15.72,-17.09 -8.66,-8.57 -18.38,-16.07 -28.59,-22.88 -11.32,-7.47 -23.32,-13.82 -35.85,-18.91 -12.38,-5 -25.38,-8.87 -38.94,-11.47 -13.35,-2.59 -26.94,-3.9 -40.69,-3.9l-506.83 0c-6.65,0 -13.31,1.21 -19.65,3.49 -15.51,5.57 -29.07,17.32 -35.48,32.51 -2.97,7.09 -4.68,14.84 -4.68,23.22 0,8.28 1.68,16.09 4.75,23.28 3.22,7.53 7.9,14.13 13.75,19.63 5.53,5.22 12.06,9.31 19.22,12.09 7.06,2.75 14.56,4.19 22.09,4.19l506.55 0c5.78,0 11.18,0.56 16.22,1.59 5.53,1.16 10.9,2.88 16.06,5.1 5.38,2.31 10.56,5.19 15.47,8.53 5.13,3.5 9.88,7.41 14.16,11.69 4.37,4.37 8.22,9 11.5,13.81 2.56,3.78 4.88,7.78 6.81,11.91l1.47 3.47c2.19,5.09 3.85,10.37 4.94,15.78 1.03,5 1.56,10.5 1.56,16.47 0,122.7 0.35,245.96 0.47,368.97 0.06,56.07 -0.15,112.17 -0.25,168.26l-0.03 248.06 -594.92 0c-7.25,0 -14.38,1.31 -21.01,3.75 -6.78,2.5 -13.06,6.22 -18.53,10.97 -5.94,5.18 -10.84,11.47 -14.34,18.65 -1.38,2.85 -2.53,5.82 -3.44,8.91 -2.63,9.07 -2.94,16.72 -1.84,25.91 2.5,21.16 17.06,37.94 36.53,45.72 6.72,2.69 15.22,4.5 22.63,4.5l653.61 0c7.76,0 14.94,-1.5 21.51,-4.06 7.37,-2.87 13.59,-6.94 18.69,-11.63 6.12,-5.62 10.65,-12.43 13.75,-19.22 3.81,-8.28 5.59,-17 5.59,-23.75 0,-102.26 -0.16,-204.86 -0.19,-307.34 -0.03,-57.94 0,-115.88 0.03,-173.82l0 0zm-1467.84 -510.64l0 375.31c12.6,-12.43 26.07,-23.62 40.41,-33.59 20.66,-14.38 43.25,-26.35 67.79,-35.94 23.91,-9.32 49.56,-16.32 76.94,-20.94 27.13,-4.63 55.72,-6.94 85.79,-6.94 29,0 58.57,2.16 84.94,6.44 26.32,4.28 51.07,10.78 74.39,19.5 23.97,8.97 46.06,20.19 66.41,33.63 15.06,9.96 29.22,21.22 42.5,33.72 15.13,14.22 28.53,28.62 40.44,43.97 14,18.06 25.97,37.41 36.22,59.38 5.88,12.63 10.88,25.38 15.13,38.25 6.78,20.66 11.72,41.94 15.25,63.7 3.41,20.87 5.5,42 6.69,63.38 1.15,20.5 1.5,41.84 1.44,63.66l-0.91 287.96c0,7.47 -1.38,14.63 -3.81,21.09 -2.6,6.91 -6.41,13.19 -11.1,18.48 -5.22,5.87 -11.72,10.75 -19.22,14.18 -15.12,6.91 -30.06,6.88 -45.25,0.97 -7,-2.75 -13.38,-6.75 -18.75,-11.69 -6,-5.5 -10.82,-12.03 -14.04,-19.18 -3.31,-7.29 -5.12,-15.22 -5.12,-23.41l0 -0.03 0 -28.41 0.15 0 -0.28 -259.43c-0.03,-14.03 -0.31,-28.22 -0.84,-42.35 -0.47,-12.19 -1.28,-25.09 -2.41,-38.56 -0.97,-11.72 -2.12,-22.25 -3.43,-31.35 -1.32,-9.09 -2.72,-16.91 -4.25,-23.19 -1.57,-6.34 -3.54,-13.03 -5.94,-20 -2.41,-7 -4.85,-13.25 -7.35,-18.72 -2.65,-5.78 -5.68,-11.63 -9.09,-17.44 -2.41,-4.16 -4.84,-8.06 -7.31,-11.69l-3.16 -4.28c-6.44,-8.78 -12.84,-16.72 -19.28,-23.81 -6.38,-7.07 -13.19,-13.76 -20.57,-20.07 -14.75,-12.69 -29.69,-22.31 -47.38,-30.5 -9.25,-4.31 -18.65,-7.97 -28.16,-11 -9.65,-3.09 -20.22,-5.75 -31.62,-8.03 -11.85,-2.35 -23.54,-4.07 -34.94,-5.13 -11.47,-1.06 -25.91,-1.62 -39.35,-1.62 -15.03,0 -28.91,0.62 -41.6,1.9 -12.75,1.25 -25.28,3.22 -37.56,5.88 -11.88,2.56 -23.04,5.69 -33.54,9.41 -10.75,3.81 -20.65,8.09 -29.72,12.84 -8.97,4.66 -17.59,10.06 -25.91,16.16 -8.12,5.97 -15.72,12.47 -22.75,19.56 -7.25,7.28 -13.88,15.03 -19.84,23.25 -13.91,19.1 -26.63,44.35 -34.76,66.2 -5.06,13.59 -9.66,28.91 -13.62,45.56 -3.78,15.82 -6.72,32.26 -8.72,48.97 -1.88,15.97 -2.91,32.38 -2.91,49.01l0 285.65c0,5.12 0.03,10.19 -0.25,14.69 -0.66,10.31 -2.94,19.56 -10.69,30.53 -4.88,6.88 -10.91,12.31 -17.56,16.35 -6.07,3.65 -12.47,6.09 -19.16,7.34 -4.07,0.78 -8.13,1.13 -12.16,1.09 -4.56,-0.06 -9.09,-0.65 -13.63,-1.75 -5.59,-1.37 -6.9,-1.68 -12.28,-4.37 -16,-7.97 -28.19,-23.57 -31.53,-41.16 -0.78,-4 -1.03,-8.03 -1.13,-12.66 -0.03,-3.25 -0.03,-7.16 -0.03,-11.19l0 -979.99c0,-12.78 3.6,-23.75 9.5,-32.81 6.66,-10.16 16.13,-17.41 26.82,-21.85 3.75,-1.56 7.56,-2.68 11.31,-3.4 3.63,-0.72 7.53,-1.03 11.63,-1.03 4.15,0.03 8.03,0.37 11.5,1.06 3.84,0.75 7.59,1.91 11.25,3.44 10.63,4.4 20.13,11.78 26.85,22 5.97,9.13 9.56,20.16 9.56,33l0 0zm3295.37 0l0 375.31c12.59,-12.43 26.06,-23.62 40.41,-33.59 20.65,-14.38 43.25,-26.35 67.78,-35.94 23.91,-9.32 49.57,-16.32 76.95,-20.94 27.12,-4.63 55.72,-6.94 85.78,-6.94 29.01,0 56.66,2.16 83.04,6.44 26.29,4.28 51.07,10.78 74.38,19.5 23.97,8.97 46.07,20.19 66.38,33.63 9.41,6.21 18.48,12.93 27.16,20.15 37.94,31.41 68.2,67.98 89.29,111.17 7.06,14.41 12.94,29.1 17.85,44 6.78,20.66 11.72,41.94 15.25,63.69 3.4,20.88 5.5,42.01 6.72,63.39 1.15,20.5 1.47,41.84 1.4,63.66l-0.81 265.24c-0.03,10.94 0.72,22.37 -1.09,33.22 -1.25,7.47 -3.94,14.59 -7.85,20.97 -6.03,9.78 -14.81,17.5 -25.28,22.28 -2.94,1.35 -5.94,2.44 -9.06,3.29 -13.6,3.68 -23.63,2.56 -36.19,-2.32 -7,-2.72 -13.35,-6.75 -18.72,-11.69 -6.04,-5.5 -10.82,-12.03 -14.07,-19.18 -5.31,-11.72 -5.12,-20.01 -5.09,-31.79 0.03,-11.56 0.15,-22.97 0.12,-34.56l-0.28 -244.93c0,-14.03 -0.28,-28.22 -0.84,-42.32 -0.47,-12.19 -1.25,-25.09 -2.41,-38.59 -0.97,-11.72 -2.09,-22.25 -3.4,-31.35 -1.32,-9.09 -2.75,-16.88 -4.29,-23.19 -1.53,-6.34 -3.53,-13.03 -5.9,-20 -2.41,-7 -4.88,-13.22 -7.38,-18.72 -2.62,-5.78 -5.66,-11.6 -9.06,-17.44 -2.41,-4.16 -4.88,-8.03 -7.35,-11.69l-3.12 -4.28c-6.47,-8.78 -12.88,-16.72 -19.29,-23.81 -6.4,-7.07 -13.22,-13.76 -20.56,-20.07 -7.34,-6.31 -14.78,-11.94 -22.31,-16.81 -7.5,-4.85 -15.82,-9.41 -25.07,-13.69 -9.28,-4.31 -18.69,-7.97 -28.19,-11 -9.62,-3.1 -20.22,-5.75 -31.63,-8.03 -11.84,-2.35 -23.5,-4.07 -34.94,-5.13 -11.47,-1.06 -23.97,-1.62 -37.41,-1.62 -15.03,0 -28.9,0.62 -41.59,1.9 -12.75,1.25 -25.29,3.22 -37.57,5.88 -11.87,2.56 -23.03,5.68 -33.53,9.4 -10.72,3.82 -20.66,8.1 -29.72,12.85 -8.97,4.65 -17.6,10.06 -25.91,16.16 -8.13,5.93 -15.72,12.47 -22.76,19.56 -7.25,7.28 -13.87,15.03 -19.84,23.25 -1.81,2.47 -3.59,5.03 -5.31,7.69 -6.47,9.75 -13.38,22.13 -18.57,32.88 -3.84,7.97 -7.5,16.53 -10.87,25.63 -5.07,13.59 -9.66,28.9 -13.63,45.56 -3.75,15.78 -6.72,32.22 -8.72,48.97 -1.88,15.94 -2.91,32.38 -2.91,49.01l-0.09 0 0 276.15c0,20.44 2.09,36.56 -10.88,54.81 -6.53,9.16 -15.25,15.79 -24.94,19.94 -3.9,1.69 -8,2.91 -12.22,3.69 -3.78,0.72 -7.59,1.06 -11.37,1.06 -4.69,-0.03 -9.38,-0.59 -14.07,-1.75 -5.5,-1.34 -6.87,-1.75 -12.18,-4.37 -28.44,-14.16 -32.66,-35.94 -32.66,-64.63l0 -7.79 0 -972.58c0,-12.78 3.59,-23.75 9.53,-32.81 6.62,-10.16 16.09,-17.41 26.78,-21.85 3.75,-1.56 7.57,-2.68 11.32,-3.4 3.62,-0.72 7.53,-1.03 11.62,-1.03 4.16,0.03 8.04,0.37 11.5,1.06 3.82,0.75 7.6,1.91 11.26,3.44 10.62,4.4 20.12,11.78 26.84,22 5.97,9.13 9.56,20.16 9.56,33l0.01 0zm1528.75 541.01c-8,-4.12 -17.28,-6.5 -27.79,-6.5l-34.69 0c0,-129.1 0.16,-258.45 0.16,-387.31 0,-13.66 -1.28,-27.28 -3.84,-40.75 -2.57,-13.47 -6.38,-26.54 -11.35,-39.01 -5,-12.5 -11.28,-24.5 -18.78,-35.91 -7.59,-11.53 -16.07,-22.03 -25.35,-31.31 -20.91,-20.91 -37.59,-32.53 -67.38,-44.6 -12.37,-5 -25.37,-8.87 -38.94,-11.47 -13.34,-2.56 -26.94,-3.9 -40.69,-3.9l-506.82 0c-7.03,0 -14.75,1.34 -22.25,4.28 -10.25,4.03 -11.32,4.59 -19.38,12.22 -5.69,5.37 -10.41,11.87 -13.63,19.53 -2.9,6.91 -4.56,14.66 -4.56,23.19 0,8.28 1.69,16.09 4.75,23.28 3.22,7.53 7.91,14.13 13.75,19.63 5.53,5.22 12.07,9.31 19.22,12.09 7.1,2.75 14.57,4.19 22.1,4.19l506.54 0c5.78,0 11.22,0.56 16.25,1.59 5.5,1.16 10.88,2.88 16.03,5.1 5.38,2.31 10.57,5.19 15.47,8.53 5.16,3.5 9.88,7.44 14.16,11.69 4.38,4.37 8.25,9 11.5,13.81 2.6,3.78 4.88,7.78 6.85,11.91l1.47 3.47c2.15,5.09 3.81,10.38 4.93,15.78 1,5 1.54,10.5 1.54,16.47 0,128.95 -0.35,258.43 -0.66,387.63l-470.42 0.06 0.04 -0.19 -29.85 0 -94.79 0c-12.69,0 -23.72,3.63 -32.88,9.69 -10.28,6.75 -17.62,16.19 -22,26.69 -1.5,3.66 -2.66,7.44 -3.41,11.25 -0.68,3.47 -1.03,7.35 -1.06,11.53 -0.03,4.13 0.31,8.04 1.03,11.69 0.75,3.94 1.91,7.78 3.41,11.41 4.44,10.56 11.78,20 22.06,26.66 9.13,5.93 20.13,9.5 32.85,9.5l94.79 0 499.82 0 1.16 279.36 -594.83 0c-7.25,0 -14.35,1.32 -21,3.79 -6.79,2.5 -13.07,6.21 -18.51,10.93 -5.97,5.19 -10.87,11.47 -14.37,18.66 -7.5,15.47 -7.85,34.04 -0.88,49.79 3.47,7.84 8.6,14.53 14.75,20.03l-0.03 0.03c5.19,4.63 11.13,8.19 17.38,10.69 2.81,1.12 5.75,2.03 8.69,2.72 6.09,1.44 11.19,1.78 17.25,1.78l650.33 0c24.04,0 43.98,-13.13 53.95,-34.91 8.34,-18.19 5.4,-46.97 5.4,-68.32l0 -294.55 34.72 0c12.75,0 23.85,-3.72 33.04,-9.85 9.9,-6.62 17.19,-16.16 21.5,-26.91 2.65,-6.62 4.19,-13.75 4.47,-20.91 0.31,-7.56 -0.75,-15.22 -3.32,-22.43 -4.87,-13.85 -14.9,-25.13 -27.9,-31.82l0 0zm71.07 -211.58l0 -327.37c0,-39.44 25.37,-62.56 66.19,-61.66 0.84,-0.03 2.31,-0.09 4.5,-0.09l495.82 0c13.75,0 27.32,1.34 40.63,3.91 13.53,2.59 26.5,6.43 38.81,11.43 12.54,5.1 24.48,11.44 35.76,18.91 23.16,15.38 41.53,33.66 56.88,57.01 7.47,11.37 13.75,23.37 18.75,35.87 5,12.47 8.81,25.54 11.34,39.01 2.57,13.44 3.88,27.09 3.88,40.75l0 28.41 -0.22 0 0 775.56 0.19 0 0 28.41 0 12.41c0,8.25 -1.78,16.06 -4.91,23.16 -3.22,7.31 -7.94,13.81 -13.66,19.19 -5.43,5.09 -11.87,9.22 -18.84,12 -6.97,2.81 -14.44,4.37 -21.94,4.37 -7.22,0 -15.25,-1.59 -22.97,-4.87 -6.78,-2.88 -13.44,-7.19 -19.16,-13 -5.22,-5.35 -9.63,-11.69 -12.63,-19.07 -2.71,-6.75 -4.31,-14.22 -4.31,-22.34l0 -10.76 0 -833.94c0,-5.97 -0.53,-11.44 -1.53,-16.38 -1.09,-5.37 -2.78,-10.62 -4.94,-15.68 -2.31,-5.5 -5.12,-10.6 -8.28,-15.26 -3.25,-4.81 -7.12,-9.43 -11.5,-13.81 -4.28,-4.28 -9,-8.19 -14.13,-11.69 -4.9,-3.34 -10.09,-6.25 -15.47,-8.53 -5.15,-2.22 -10.53,-3.94 -16.03,-5.09 -5,-1.04 -10.41,-1.6 -16.19,-1.6l-447.63 0 0 921.98c0,12.91 0.35,22.16 -5.09,34.51 -3.35,7.59 -8.19,14.19 -14.03,19.53 -9.5,8.75 -22.01,16.91 -42.88,15.94 -6.94,-0.31 -13.29,-2.1 -20.1,-4.94 -6.91,-2.87 -13.47,-7.16 -19.13,-12.81 -5.25,-5.25 -9.62,-11.66 -12.72,-19.19 -2.84,-6.97 -4.47,-14.5 -4.47,-22.44l0 -11.69 0 -527.64 0 -122.51 0.01 0z"/>
 </g>
</svg>
