<?xml version="1.0" encoding="UTF-8"?>
<!DOCTYPE svg PUBLIC "-//W3C//DTD SVG 1.1//EN" "http://www.w3.org/Graphics/SVG/1.1/DTD/svg11.dtd">
<!-- Creator: CorelDRAW -->
<svg xmlns="http://www.w3.org/2000/svg" xml:space="preserve" width="3840px" height="2160px" version="1.1" style="shape-rendering:geometricPrecision; text-rendering:geometricPrecision; image-rendering:optimizeQuality; fill-rule:evenodd; clip-rule:evenodd"
viewBox="0 0 3840 2160"
 xmlns:xlink="http://www.w3.org/1999/xlink"
 xmlns:xodm="http://www.corel.com/coreldraw/odm/2003">
 <defs>
  <style type="text/css">
   <![CDATA[
    .fil0 {fill:#373435;fill-rule:nonzero}
   ]]>
  </style>
 </defs>
 <g id="Layer_x0020_1">
  <metadata id="CorelCorpID_0Corel-Layer"/>
  <g id="_1771454957184">
   <path class="fil0" d="M1549 963.35c-3.31,-3.2 -6.31,-6.88 -8.98,-10.79 -2.86,-4.18 -5.36,-8.63 -7.44,-12.98 -2.26,-4.76 -4.09,-9.57 -5.37,-13.93 -0.61,-2.07 -1.12,-4.04 -1.53,-5.91 -0.41,-1.88 -0.77,-3.87 -1.07,-5.95 -0.29,-2.03 -0.51,-4.05 -0.66,-6.06 -0.15,-2.11 -0.23,-4.11 -0.23,-6.01 0,-2.92 0.17,-5.93 0.51,-9.03 0.33,-3.1 0.81,-6.08 1.43,-8.94 0.6,-2.77 1.41,-5.68 2.42,-8.71 1,-3.04 2.1,-5.86 3.29,-8.47 1.21,-2.67 2.62,-5.38 4.22,-8.11 1.6,-2.72 3.28,-5.28 5.04,-7.68 1.84,-2.52 3.78,-4.9 5.81,-7.16 2.05,-2.27 4.23,-4.47 6.53,-6.57 2.16,-1.97 4.54,-3.92 7.12,-5.86 2.55,-1.9 5.13,-3.65 7.71,-5.23 2.74,-1.67 5.47,-3.17 8.19,-4.5 2.68,-1.31 5.54,-2.54 8.59,-3.7 2.84,-1.07 5.8,-2.03 8.88,-2.88 2.93,-0.81 6,-1.51 9.19,-2.09 3.1,-0.56 6.23,-0.98 9.37,-1.27 3.35,-0.3 6.48,-0.46 9.37,-0.46 2.88,0 6.02,0.16 9.37,0.46 3.14,0.29 6.27,0.71 9.37,1.27 3.19,0.58 6.25,1.28 9.19,2.09 3.07,0.85 6.03,1.81 8.87,2.88 3.05,1.16 5.92,2.39 8.6,3.7 2.72,1.33 5.45,2.83 8.18,4.5 2.59,1.57 5.16,3.32 7.7,5.23 2.59,1.93 4.97,3.89 7.13,5.86 2.31,2.1 4.49,4.29 6.54,6.57 2.02,2.25 3.96,4.64 5.81,7.16 1.76,2.4 3.44,4.97 5.04,7.68 1.6,2.73 3.01,5.44 4.22,8.11 1.19,2.61 2.29,5.43 3.29,8.47 1.01,3.03 1.82,5.94 2.42,8.71 0.62,2.86 1.1,5.84 1.43,8.95 0.34,3.09 0.51,6.11 0.51,9.02 0,20.93 -9.36,36.36 -23.21,48.94 -11.2,10.18 -25.11,18.2 -39.15,25.81 -6.6,3.58 -14.28,7.63 -19.96,10.84 -1.7,0.97 -3.5,2.05 -5.41,3.24 -1.85,1.16 -3.52,2.25 -4.98,3.26 -1.59,1.1 -3.14,2.23 -4.65,3.4 -1.48,1.14 -2.91,2.3 -4.28,3.48 -1.38,1.2 -2.71,2.41 -4,3.66 -1.36,1.32 -2.55,2.54 -3.56,3.65 -0.93,1.03 -1.99,2.3 -3.18,3.81 -1.06,1.34 -2.04,2.67 -2.93,3.98 -0.92,1.35 -1.77,2.7 -2.55,4.05 -0.85,1.47 -1.57,2.82 -2.17,4.06 -0.64,1.33 -1.26,2.77 -1.85,4.3 -0.51,1.33 -1.02,2.83 -1.53,4.51 -0.47,1.55 -0.88,3.15 -1.24,4.79 -0.38,1.71 -0.68,3.36 -0.91,4.96 -0.24,1.69 -0.42,3.44 -0.54,5.23 -0.12,1.66 -0.17,3.51 -0.17,5.57 0,2.59 0.12,5.02 0.36,7.28 0.25,2.35 0.65,4.73 1.17,7.15 0.56,2.57 1.19,4.91 1.89,7.03 0.73,2.18 1.63,4.46 2.71,6.84 1.07,2.35 2.21,4.55 3.4,6.59 1.23,2.09 2.62,4.19 4.16,6.29 1.48,2.02 3.1,4 4.85,5.95 1.74,1.93 3.58,3.78 5.5,5.53 2.06,1.87 4.11,3.58 6.14,5.1 2.06,1.54 4.29,3.04 6.67,4.49 2.2,1.35 4.59,2.64 7.15,3.89 2.54,1.24 5.04,2.33 7.51,3.26 2.62,0.99 5.26,1.85 7.9,2.58 2.71,0.75 5.4,1.37 8.08,1.85 2.44,0.44 5.19,0.8 8.25,1.06 2.78,0.25 5.63,0.37 8.55,0.37 2.92,0 5.78,-0.12 8.56,-0.37 3.05,-0.26 5.81,-0.62 8.25,-1.06 2.67,-0.48 5.37,-1.1 8.07,-1.85 2.64,-0.73 5.28,-1.59 7.9,-2.58 2.47,-0.93 4.98,-2.02 7.52,-3.26 2.56,-1.25 4.94,-2.54 7.14,-3.89 2.39,-1.45 4.61,-2.95 6.67,-4.49 2.04,-1.52 4.09,-3.23 6.15,-5.1 1.92,-1.75 3.75,-3.6 5.49,-5.53 1.76,-1.95 3.38,-3.93 4.85,-5.95 1.55,-2.1 2.94,-4.2 4.16,-6.29 1.2,-2.04 2.34,-4.24 3.4,-6.59 1.08,-2.38 1.99,-4.66 2.71,-6.83 0.71,-2.12 1.34,-4.47 1.9,-7.04 0.52,-2.42 0.91,-4.8 1.17,-7.15 0.24,-2.27 0.36,-4.69 0.36,-7.28 0,-2.46 -0.1,-4.69 -0.29,-6.69 -0.2,-2.05 -0.53,-4.23 -0.99,-6.54 -0.44,-2.2 -0.97,-4.36 -1.61,-6.47 -0.67,-2.23 -1.4,-4.31 -2.2,-6.24 -2.05,-4.98 -4.74,-10.09 -7.99,-14.88 -4.67,-6.88 -9.27,-12 -16.42,-16.23 -5.03,-2.97 -9.29,-4.26 -17.04,-7.03 -6,-2.14 -10.58,-6.28 -12.31,-13.03 -1.29,-5.03 -0.46,-10.06 2.22,-14.49 1.29,-2.12 2.82,-3.77 4.43,-5.04 1.93,-1.51 4.01,-2.49 6.01,-3.1 0.93,-0.29 1.83,-0.5 2.69,-0.65 3.18,-0.52 6.03,-0.15 9.39,0.48 5.97,1.13 11.65,3.08 17.01,5.69 6.95,3.38 13.34,7.89 19.12,13.16 6,5.46 11.34,11.78 15.93,18.49 4.88,7.14 8.93,14.79 12.05,22.37 1.39,3.38 2.56,6.63 3.51,9.76 0.98,3.23 1.81,6.57 2.49,9.99 0.63,3.2 1.12,6.6 1.48,10.21 0.35,3.57 0.53,7 0.53,10.24 0,3.67 -0.21,7.42 -0.62,11.24 -0.41,3.84 -1.01,7.55 -1.79,11.13 -0.76,3.49 -1.76,7.11 -3,10.84 -1.24,3.74 -2.61,7.26 -4.1,10.53 -1.52,3.36 -3.28,6.73 -5.26,10.1 -1.97,3.37 -4.07,6.57 -6.28,9.58 -2.29,3.13 -4.72,6.11 -7.26,8.93 -2.56,2.85 -5.29,5.59 -8.16,8.21 -2.74,2.49 -5.72,4.95 -8.93,7.35 -3.17,2.37 -6.39,4.56 -9.64,6.55 -3.4,2.07 -6.83,3.95 -10.26,5.63 -3.39,1.65 -6.99,3.2 -10.78,4.64 -3.58,1.35 -7.3,2.56 -11.14,3.62 -3.71,1.02 -7.55,1.9 -11.54,2.62 -3.89,0.7 -7.81,1.24 -11.76,1.59 -3.26,0.3 -6.55,0.47 -9.86,0.52 -0.64,0.01 -1.28,0.01 -1.93,0.01 -3.96,0.01 -7.89,-0.17 -11.78,-0.53 -3.95,-0.35 -7.87,-0.89 -11.76,-1.59 -3.99,-0.72 -7.84,-1.6 -11.54,-2.62 -3.85,-1.06 -7.57,-2.27 -11.14,-3.62 -3.79,-1.43 -7.39,-2.98 -10.78,-4.64 -3.43,-1.67 -6.85,-3.55 -10.26,-5.63 -3.26,-1.99 -6.48,-4.18 -9.65,-6.55 -3.21,-2.4 -6.19,-4.86 -8.92,-7.35 -2.88,-2.62 -5.6,-5.36 -8.17,-8.21 -2.53,-2.82 -4.96,-5.8 -7.25,-8.93 -2.21,-3.01 -4.31,-6.21 -6.28,-9.58 -1.98,-3.37 -3.74,-6.74 -5.26,-10.1 -1.49,-3.27 -2.86,-6.78 -4.1,-10.52 -1.24,-3.73 -2.25,-7.36 -3.01,-10.85 -0.77,-3.58 -1.37,-7.29 -1.78,-11.13 -0.41,-3.82 -0.62,-7.57 -0.62,-11.24 0,-2.62 0.1,-5.33 0.3,-8.14 0.19,-2.68 0.47,-5.36 0.86,-8.03 0.35,-2.44 0.82,-5.01 1.42,-7.7 0.57,-2.55 1.23,-5.08 1.99,-7.58 0.76,-2.52 1.59,-4.92 2.48,-7.21 0.96,-2.46 1.97,-4.8 3.04,-7.01 1.09,-2.26 2.26,-4.47 3.51,-6.64 1.27,-2.2 2.61,-4.34 4.02,-6.41 1.26,-1.85 2.72,-3.82 4.38,-5.92 1.54,-1.96 3.18,-3.89 4.9,-5.78 1.78,-1.97 3.51,-3.78 5.2,-5.43 1.78,-1.74 3.64,-3.44 5.57,-5.11 4.43,-3.84 6.91,-5.8 12.14,-9.44 1.99,-1.38 4.15,-2.8 6.47,-4.25 0.94,-0.59 1.93,-1.19 2.97,-1.81 8.67,-5.16 12.71,-7.15 21.88,-12.09 5.62,-3.03 11.2,-6.08 16.25,-9.12 6.05,-3.64 11.65,-7.41 16.29,-11.42 2.1,-1.81 4,-3.67 5.66,-5.58 1.53,-1.78 2.87,-3.64 3.97,-5.6 0.96,-1.71 1.7,-3.48 2.21,-5.33 0.49,-1.84 0.76,-3.82 0.76,-5.94 0,-1.84 -0.09,-3.53 -0.25,-5.07 -0.17,-1.61 -0.45,-3.27 -0.82,-4.97 -0.4,-1.85 -0.83,-3.48 -1.31,-4.9 -1.01,-3.05 -2.64,-6.6 -4.27,-9.37 -0.84,-1.43 -1.81,-2.9 -2.91,-4.39 -1.02,-1.4 -2.16,-2.8 -3.4,-4.17 -1.23,-1.37 -2.52,-2.67 -3.87,-3.89 -1.48,-1.36 -2.94,-2.57 -4.35,-3.62 -1.43,-1.08 -3,-2.14 -4.71,-3.18 -1.54,-0.93 -3.23,-1.85 -5.08,-2.75 -1.83,-0.89 -3.61,-1.67 -5.33,-2.32 -1.88,-0.7 -3.76,-1.32 -5.63,-1.84 -1.95,-0.53 -3.86,-0.97 -5.74,-1.31 -1.66,-0.3 -3.61,-0.55 -5.86,-0.75 -1.98,-0.17 -4.03,-0.26 -6.13,-0.26 -2.11,0 -4.15,0.09 -6.13,0.26 -2.25,0.2 -4.2,0.45 -5.87,0.75 -1.87,0.34 -3.79,0.78 -5.73,1.31 -1.87,0.52 -3.75,1.14 -5.63,1.84 -1.73,0.65 -3.51,1.43 -5.35,2.33 -1.84,0.89 -3.53,1.81 -5.06,2.75 -1.71,1.04 -3.29,2.1 -4.72,3.17 -1.41,1.05 -2.86,2.26 -4.34,3.62 -1.35,1.22 -2.64,2.52 -3.87,3.88 -1.24,1.38 -2.38,2.78 -3.4,4.17 -1.1,1.5 -2.07,2.97 -2.91,4.4 -0.83,1.4 -1.62,2.93 -2.38,4.6 -0.77,1.71 -1.41,3.3 -1.89,4.77 -0.48,1.42 -0.91,3.05 -1.31,4.9 -0.37,1.71 -0.65,3.37 -0.82,4.97 -0.16,1.54 -0.25,3.23 -0.25,5.07 0,1.32 0.04,2.48 0.11,3.47 0.07,1.12 0.19,2.22 0.34,3.3 0.15,1.04 0.36,2.15 0.61,3.31 0.27,1.23 0.54,2.32 0.81,3.25 0.69,2.35 1.77,5.17 3.16,8.11 0.76,1.6 1.61,3.23 2.52,4.81 2.01,3.47 4.55,6.52 8.48,10.39 10.32,10.16 8.2,22.03 2.38,27.82 -6.88,6.83 -17.89,10.43 -31.14,-2.83zm486.46 30.26c0,-37.88 0.05,-75.85 0.05,-113.64l0 -2.73c0,-4.37 -0.41,-8.74 -1.23,-13.04 -0.82,-4.31 -2.04,-8.49 -3.64,-12.49 -1.59,-3.98 -3.6,-7.81 -5.99,-11.45 -1.25,-1.91 -2.6,-3.73 -4.03,-5.48 -1.73,-2.1 -2.99,-3.45 -5.03,-5.47 -2.76,-2.74 -5.88,-5.14 -9.15,-7.32 -3.62,-2.39 -7.46,-4.42 -11.47,-6.05 -3.95,-1.6 -8.12,-2.84 -12.46,-3.67 -4.27,-0.83 -8.62,-1.25 -13.02,-1.25l-162.17 0c-2.12,0 -4.26,0.39 -6.29,1.12 -4.96,1.78 -9.3,5.54 -11.34,10.4 -0.96,2.27 -1.51,4.75 -1.51,7.43 0,2.65 0.54,5.15 1.52,7.45 1.03,2.41 2.53,4.52 4.4,6.28 1.77,1.67 3.86,2.98 6.15,3.87 2.27,0.88 4.66,1.34 7.07,1.34l162.08 0c1.85,0 3.59,0.18 5.2,0.51 1.76,0.37 3.48,0.92 5.13,1.63 1.72,0.74 3.38,1.66 4.95,2.73 1.64,1.12 3.16,2.37 4.53,3.74 1.4,1.4 2.63,2.88 3.68,4.42 0.82,1.21 1.56,2.49 2.19,3.81l0.47 1.11c0.69,1.63 1.22,3.32 1.58,5.05 0.32,1.6 0.49,3.36 0.49,5.27 0,39.26 0.12,78.7 0.15,118.06 0.02,17.94 -0.05,35.89 -0.08,53.84l-0.01 79.37 -190.36 0c-2.32,0 -4.59,0.42 -6.72,1.2 -2.17,0.8 -4.18,1.99 -5.92,3.51 -1.91,1.66 -3.48,3.67 -4.6,5.97 -0.44,0.91 -0.81,1.86 -1.1,2.85 -0.84,2.9 -0.94,5.35 -0.59,8.29 0.8,6.77 5.46,12.14 11.69,14.63 2.16,0.86 4.87,1.44 7.24,1.44l209.14 0c2.48,0 4.78,-0.48 6.88,-1.3 2.36,-0.92 4.35,-2.22 5.98,-3.72 1.96,-1.8 3.41,-3.98 4.4,-6.15 1.22,-2.65 1.79,-5.44 1.79,-7.6 0,-32.72 -0.05,-65.55 -0.06,-98.34 -0.01,-18.54 0.01,-37.08 0.01,-55.62zm-533.85 0c0,-37.88 0.05,-75.85 0.05,-113.64l0 -2.73c0,-4.37 -0.42,-8.74 -1.23,-13.04 -0.82,-4.31 -2.04,-8.49 -3.64,-12.49 -1.59,-3.98 -3.6,-7.81 -5.99,-11.45 -1.25,-1.91 -2.6,-3.73 -4.03,-5.48 -1.73,-2.1 -2.99,-3.45 -5.03,-5.47 -2.77,-2.74 -5.88,-5.14 -9.15,-7.32 -3.62,-2.39 -7.46,-4.42 -11.47,-6.05 -3.96,-1.6 -8.12,-2.84 -12.46,-3.67 -4.27,-0.83 -8.62,-1.25 -13.02,-1.25l-162.17 0c-2.13,0 -4.26,0.39 -6.29,1.12 -4.96,1.78 -9.3,5.54 -11.35,10.4 -0.95,2.27 -1.5,4.75 -1.5,7.43 0,2.65 0.54,5.15 1.52,7.45 1.03,2.41 2.53,4.52 4.4,6.28 1.77,1.67 3.86,2.98 6.15,3.87 2.26,0.88 4.66,1.34 7.07,1.34l162.08 0c1.85,0 3.58,0.18 5.19,0.51 1.77,0.37 3.49,0.92 5.14,1.63 1.72,0.74 3.38,1.66 4.95,2.73 1.64,1.12 3.16,2.37 4.53,3.74 1.4,1.4 2.63,2.88 3.68,4.42 0.82,1.21 1.56,2.49 2.18,3.81l0.47 1.11c0.7,1.63 1.23,3.32 1.58,5.05 0.33,1.6 0.5,3.36 0.5,5.27 0,39.26 0.11,78.7 0.15,118.06 0.02,17.94 -0.05,35.89 -0.08,53.84l-0.01 79.37 -190.36 0c-2.32,0 -4.6,0.42 -6.72,1.2 -2.17,0.8 -4.18,1.99 -5.93,3.51 -1.9,1.66 -3.47,3.67 -4.59,5.97 -0.44,0.91 -0.81,1.86 -1.1,2.85 -0.84,2.9 -0.94,5.35 -0.59,8.29 0.8,6.77 5.46,12.14 11.69,14.63 2.15,0.86 4.87,1.44 7.24,1.44l209.14 0c2.48,0 4.78,-0.48 6.88,-1.3 2.36,-0.92 4.35,-2.22 5.98,-3.72 1.96,-1.8 3.41,-3.98 4.4,-6.15 1.22,-2.65 1.79,-5.44 1.79,-7.6 0,-32.72 -0.05,-65.55 -0.06,-98.34 -0.01,-18.54 0,-37.08 0.01,-55.62zm-469.67 -163.39l0 120.09c4.03,-3.98 8.34,-7.56 12.93,-10.75 6.61,-4.6 13.84,-8.43 21.69,-11.5 7.65,-2.98 15.86,-5.22 24.62,-6.7 8.68,-1.48 17.83,-2.22 27.45,-2.22 9.28,0 18.74,0.69 27.18,2.06 8.42,1.37 16.34,3.45 23.8,6.24 7.67,2.87 14.74,6.46 21.25,10.76 4.82,3.19 9.35,6.79 13.6,10.79 4.84,4.55 9.13,9.16 12.94,14.07 4.48,5.78 8.31,11.97 11.59,19 1.88,4.04 3.48,8.12 4.84,12.24 2.17,6.61 3.75,13.42 4.88,20.38 1.09,6.68 1.76,13.44 2.14,20.28 0.37,6.56 0.48,13.39 0.46,20.37l-0.29 92.14c0,2.39 -0.44,4.68 -1.22,6.75 -0.83,2.21 -2.05,4.22 -3.55,5.91 -1.67,1.88 -3.75,3.44 -6.15,4.54 -4.84,2.21 -9.62,2.2 -14.48,0.31 -2.24,-0.88 -4.28,-2.16 -6,-3.74 -1.92,-1.76 -3.46,-3.85 -4.49,-6.14 -1.06,-2.33 -1.64,-4.87 -1.64,-7.49l0 -0.01 0 -9.09 0.05 0 -0.09 -83.01c-0.01,-4.49 -0.1,-9.03 -0.27,-13.55 -0.15,-3.9 -0.41,-8.03 -0.77,-12.34 -0.31,-3.75 -0.68,-7.12 -1.1,-10.03 -0.42,-2.91 -0.87,-5.41 -1.36,-7.42 -0.5,-2.03 -1.13,-4.17 -1.9,-6.4 -0.77,-2.24 -1.55,-4.24 -2.35,-5.99 -0.85,-1.85 -1.82,-3.72 -2.91,-5.58 -0.77,-1.33 -1.55,-2.58 -2.34,-3.74l-1.01 -1.37c-2.06,-2.81 -4.11,-5.35 -6.17,-7.62 -2.04,-2.26 -4.22,-4.4 -6.58,-6.42 -4.72,-4.06 -9.5,-7.14 -15.16,-9.76 -2.96,-1.38 -5.97,-2.55 -9.01,-3.52 -3.09,-0.99 -6.47,-1.84 -10.12,-2.57 -3.79,-0.75 -7.53,-1.3 -11.18,-1.64 -3.67,-0.34 -8.29,-0.52 -12.59,-0.52 -4.81,0 -9.25,0.2 -13.31,0.61 -4.08,0.4 -8.09,1.03 -12.02,1.88 -3.8,0.82 -7.37,1.82 -10.73,3.01 -3.44,1.22 -6.61,2.59 -9.51,4.11 -2.87,1.49 -5.63,3.22 -8.29,5.17 -2.6,1.91 -5.03,3.99 -7.28,6.26 -2.32,2.33 -4.44,4.81 -6.35,7.44 -4.45,6.11 -8.52,14.19 -11.12,21.18 -1.62,4.35 -3.09,9.25 -4.36,14.58 -1.21,5.06 -2.15,10.32 -2.79,15.67 -0.6,5.11 -0.93,10.36 -0.93,15.68l0 91.4c0,1.64 0.01,3.26 -0.08,4.7 -0.21,3.3 -0.94,6.26 -3.42,9.77 -1.56,2.2 -3.49,3.94 -5.62,5.23 -1.94,1.17 -3.99,1.95 -6.13,2.35 -1.3,0.25 -2.6,0.36 -3.89,0.35 -1.46,-0.02 -2.91,-0.21 -4.36,-0.56 -1.79,-0.44 -2.21,-0.54 -3.93,-1.4 -5.12,-2.55 -9.02,-7.54 -10.09,-13.17 -0.25,-1.28 -0.33,-2.57 -0.36,-4.05 -0.01,-1.04 -0.01,-2.29 -0.01,-3.58l0 -313.57c0,-4.09 1.15,-7.6 3.04,-10.5 2.13,-3.25 5.16,-5.57 8.58,-6.99 1.2,-0.5 2.42,-0.86 3.62,-1.09 1.16,-0.23 2.41,-0.33 3.72,-0.33 1.33,0.01 2.57,0.12 3.68,0.34 1.23,0.24 2.43,0.61 3.6,1.1 3.4,1.41 6.44,3.77 8.59,7.04 1.91,2.92 3.06,6.45 3.06,10.56zm1054.43 0l0 120.09c4.03,-3.98 8.34,-7.56 12.93,-10.75 6.61,-4.6 13.84,-8.43 21.69,-11.5 7.65,-2.98 15.86,-5.22 24.62,-6.7 8.68,-1.48 17.83,-2.22 27.45,-2.22 9.28,0 18.13,0.69 26.57,2.06 8.41,1.37 16.34,3.45 23.8,6.24 7.67,2.87 14.74,6.46 21.24,10.76 3.01,1.99 5.91,4.14 8.69,6.45 12.14,10.05 21.82,21.75 28.57,35.57 2.26,4.61 4.14,9.31 5.71,14.08 2.17,6.61 3.75,13.42 4.88,20.38 1.09,6.68 1.76,13.44 2.15,20.28 0.37,6.56 0.47,13.39 0.45,20.37l-0.26 84.87c-0.01,3.5 0.23,7.16 -0.35,10.63 -0.4,2.39 -1.26,4.67 -2.51,6.71 -1.93,3.13 -4.74,5.6 -8.09,7.13 -0.94,0.43 -1.9,0.78 -2.9,1.05 -4.35,1.18 -7.56,0.82 -11.58,-0.74 -2.24,-0.87 -4.27,-2.16 -5.99,-3.74 -1.93,-1.76 -3.46,-3.85 -4.5,-6.14 -1.7,-3.75 -1.64,-6.4 -1.63,-10.17 0.01,-3.7 0.05,-7.35 0.04,-11.06l-0.09 -78.37c0,-4.49 -0.09,-9.03 -0.27,-13.54 -0.15,-3.9 -0.4,-8.03 -0.77,-12.35 -0.31,-3.75 -0.67,-7.12 -1.09,-10.03 -0.42,-2.91 -0.88,-5.4 -1.37,-7.42 -0.49,-2.03 -1.13,-4.17 -1.89,-6.4 -0.77,-2.24 -1.56,-4.23 -2.36,-5.99 -0.84,-1.85 -1.81,-3.71 -2.9,-5.58 -0.77,-1.33 -1.56,-2.57 -2.35,-3.74l-1 -1.37c-2.07,-2.81 -4.12,-5.35 -6.17,-7.62 -2.05,-2.26 -4.23,-4.4 -6.58,-6.42 -2.35,-2.02 -4.73,-3.82 -7.14,-5.38 -2.4,-1.55 -5.06,-3.01 -8.02,-4.38 -2.97,-1.38 -5.98,-2.55 -9.02,-3.52 -3.08,-0.99 -6.47,-1.84 -10.12,-2.57 -3.79,-0.75 -7.52,-1.3 -11.18,-1.64 -3.67,-0.34 -7.67,-0.52 -11.97,-0.52 -4.81,0 -9.25,0.2 -13.31,0.61 -4.08,0.4 -8.09,1.03 -12.02,1.88 -3.8,0.82 -7.37,1.82 -10.73,3.01 -3.43,1.22 -6.61,2.59 -9.51,4.11 -2.87,1.49 -5.63,3.22 -8.29,5.17 -2.6,1.9 -5.03,3.99 -7.28,6.26 -2.32,2.33 -4.44,4.81 -6.35,7.44 -0.58,0.79 -1.15,1.61 -1.7,2.46 -2.07,3.12 -4.28,7.08 -5.94,10.52 -1.23,2.55 -2.4,5.29 -3.48,8.2 -1.62,4.35 -3.09,9.25 -4.36,14.58 -1.2,5.05 -2.15,10.31 -2.79,15.67 -0.6,5.1 -0.93,10.36 -0.93,15.68l-0.03 0 0 88.36c0,6.54 0.67,11.7 -3.48,17.54 -2.09,2.93 -4.88,5.05 -7.98,6.38 -1.25,0.54 -2.56,0.93 -3.91,1.18 -1.21,0.23 -2.43,0.34 -3.64,0.34 -1.5,-0.01 -3,-0.19 -4.5,-0.56 -1.76,-0.43 -2.2,-0.56 -3.9,-1.4 -9.1,-4.53 -10.45,-11.5 -10.45,-20.68l0 -2.49 0 -311.2c0,-4.09 1.15,-7.6 3.05,-10.5 2.12,-3.25 5.15,-5.57 8.57,-6.99 1.2,-0.5 2.42,-0.86 3.62,-1.09 1.16,-0.23 2.41,-0.33 3.72,-0.33 1.33,0.01 2.57,0.12 3.68,0.34 1.22,0.24 2.43,0.61 3.6,1.1 3.4,1.41 6.44,3.77 8.59,7.04 1.91,2.92 3.06,6.45 3.06,10.56zm489.16 173.11c-2.56,-1.32 -5.53,-2.08 -8.89,-2.08l-11.1 0c0,-41.31 0.05,-82.7 0.05,-123.93 0,-4.37 -0.41,-8.73 -1.23,-13.04 -0.82,-4.31 -2.04,-8.49 -3.63,-12.48 -1.6,-4 -3.61,-7.84 -6.01,-11.49 -2.43,-3.69 -5.14,-7.05 -8.11,-10.02 -6.69,-6.69 -12.03,-10.41 -21.56,-14.27 -3.96,-1.6 -8.12,-2.84 -12.46,-3.67 -4.27,-0.82 -8.62,-1.25 -13.02,-1.25l-162.17 0c-2.25,0 -4.72,0.43 -7.12,1.37 -3.28,1.29 -3.62,1.47 -6.2,3.91 -1.82,1.72 -3.33,3.8 -4.36,6.25 -0.93,2.21 -1.46,4.69 -1.46,7.42 0,2.65 0.54,5.15 1.52,7.45 1.03,2.41 2.53,4.52 4.4,6.28 1.77,1.67 3.86,2.98 6.15,3.87 2.27,0.88 4.66,1.34 7.07,1.34l162.08 0c1.85,0 3.59,0.18 5.2,0.51 1.76,0.37 3.48,0.92 5.13,1.63 1.72,0.74 3.38,1.66 4.95,2.73 1.65,1.12 3.16,2.38 4.53,3.74 1.4,1.4 2.64,2.88 3.68,4.42 0.83,1.21 1.56,2.49 2.19,3.81l0.47 1.11c0.69,1.63 1.22,3.32 1.58,5.05 0.32,1.6 0.49,3.36 0.49,5.27 0,41.26 -0.11,82.69 -0.21,124.03l-150.52 0.02 0.01 -0.06 -9.55 0 -30.33 0c-4.06,0 -7.59,1.16 -10.52,3.1 -3.29,2.16 -5.64,5.18 -7.04,8.54 -0.48,1.17 -0.85,2.38 -1.09,3.6 -0.22,1.11 -0.33,2.35 -0.34,3.69 -0.01,1.32 0.1,2.57 0.33,3.74 0.24,1.26 0.61,2.49 1.09,3.65 1.42,3.38 3.77,6.4 7.06,8.53 2.92,1.9 6.44,3.04 10.51,3.04l30.33 0 159.93 0 0.37 89.39 -190.33 0c-2.32,0 -4.59,0.42 -6.72,1.21 -2.17,0.8 -4.18,1.99 -5.92,3.5 -1.91,1.66 -3.48,3.67 -4.6,5.97 -2.4,4.95 -2.51,10.89 -0.28,15.93 1.11,2.51 2.75,4.65 4.72,6.41l-0.01 0.01c1.66,1.48 3.56,2.62 5.56,3.42 0.9,0.36 1.84,0.65 2.78,0.87 1.95,0.46 3.58,0.57 5.52,0.57l208.09 0c7.69,0 14.07,-4.2 17.26,-11.17 2.67,-5.82 1.73,-15.03 1.73,-21.86l0 -94.25 11.11 0c4.08,0 7.63,-1.19 10.57,-3.15 3.17,-2.12 5.5,-5.17 6.88,-8.61 0.85,-2.12 1.34,-4.4 1.43,-6.69 0.1,-2.42 -0.24,-4.87 -1.06,-7.18 -1.56,-4.43 -4.77,-8.04 -8.93,-10.18zm22.74 -67.7l0 -104.75c0,-12.62 8.12,-20.02 21.18,-19.73 0.27,-0.01 0.74,-0.03 1.44,-0.03l158.65 0c4.4,0 8.74,0.43 13,1.25 4.33,0.83 8.48,2.06 12.42,3.66 4.01,1.63 7.83,3.66 11.44,6.05 7.41,4.92 13.29,10.77 18.2,18.24 2.39,3.64 4.4,7.48 6,11.48 1.6,3.99 2.82,8.17 3.63,12.48 0.82,4.3 1.24,8.67 1.24,13.04l0 9.09 -0.07 0 0 248.16 0.06 0 0 9.09 0 3.97c0,2.64 -0.57,5.14 -1.57,7.41 -1.03,2.34 -2.54,4.42 -4.37,6.14 -1.74,1.63 -3.8,2.95 -6.03,3.84 -2.23,0.9 -4.62,1.4 -7.02,1.4 -2.31,0 -4.88,-0.51 -7.35,-1.56 -2.17,-0.92 -4.3,-2.3 -6.13,-4.16 -1.67,-1.71 -3.08,-3.74 -4.04,-6.1 -0.87,-2.16 -1.38,-4.55 -1.38,-7.15l0 -3.44 0 -266.84c0,-1.91 -0.17,-3.66 -0.49,-5.24 -0.35,-1.72 -0.89,-3.4 -1.58,-5.02 -0.74,-1.76 -1.64,-3.39 -2.65,-4.88 -1.04,-1.54 -2.28,-3.02 -3.68,-4.42 -1.37,-1.37 -2.88,-2.62 -4.52,-3.74 -1.57,-1.07 -3.23,-2 -4.95,-2.73 -1.65,-0.71 -3.37,-1.26 -5.13,-1.63 -1.6,-0.33 -3.33,-0.51 -5.18,-0.51l-143.23 0 0 295.01c0,4.13 0.11,7.09 -1.63,11.04 -1.07,2.43 -2.62,4.54 -4.49,6.25 -3.04,2.8 -7.04,5.41 -13.72,5.1 -2.22,-0.1 -4.25,-0.67 -6.43,-1.58 -2.21,-0.92 -4.31,-2.29 -6.12,-4.1 -1.68,-1.68 -3.08,-3.73 -4.07,-6.14 -0.91,-2.23 -1.43,-4.64 -1.43,-7.18l0 -3.74 0 -168.83 0 -39.2z"/>
   <path class="fil0" d="M1314.91 1348.71l12.17 0c-5.48,-13.38 -7.89,-23.42 -7.89,-35.73 0,-13.78 4.95,-20.33 14.85,-20.33 6.82,0 13.25,4.01 13.25,15.12l0 20.33 11.37 0 0 -20.33c0,-11.11 5.75,-15.12 12.98,-15.12 8.43,0 15.12,4.55 15.12,20.6 0,12.04 -2.81,22.21 -8.03,35.46l12.04 0c4.15,-9.37 8.3,-20.74 8.3,-35.73 0,-20.47 -11.24,-29.83 -25.69,-29.83 -10.98,0 -18.07,4.81 -20.34,14.71 -2.28,-9.9 -9.5,-14.71 -18.73,-14.71 -7.23,0 -12.18,2.67 -15.93,8.02 3.35,-10.3 10.84,-17.12 28.77,-19.93 12.98,-2.14 21.41,-4.02 27.16,-7.76l-4.41 -8.7c-4.82,2.68 -14.45,4.95 -26.63,7.36 -29.97,5.89 -36.39,21.14 -36.39,48.44 0,16.99 3.88,28.5 8.03,38.13z"/>
   <path id="_1" class="fil0" d="M1497.65 1255.05c-15.92,0 -27.83,9.9 -27.83,23.82 0,4.54 1.47,8.69 3.21,12.17l10.3 -2.54c-0.8,-2.54 -1.6,-4.95 -1.6,-9.37 0,-7.76 4.81,-14.45 15.92,-14.45 10.84,0 16.45,6.42 16.45,17.93l0 37.87c0,13.38 -5.75,20.47 -17.39,20.47 -11.51,0 -16.59,-7.63 -16.59,-17.93 0,-4.28 0.8,-8.56 2.41,-12.04l-10.3 -3.08c-3.08,5.35 -4.15,11.11 -4.15,16.06 0,14.98 10.44,26.49 28.63,26.49 19.27,0 28.9,-12.18 28.9,-29.17l0 -39.07c0,-17.53 -12.04,-27.16 -27.96,-27.16z"/>
   <path id="_2" class="fil0" d="M1631.15 1350.45c20.34,0 30.24,-14.05 30.24,-28.77 0,-20.2 -14.45,-25.96 -14.58,-38.53l-11.38 0c0,17.79 13.65,20.87 13.65,38.53 0,10.3 -5.62,19.27 -17.79,19.27 -13.79,0 -18.47,-9.77 -18.47,-21.81l0 -62.49 -11.51 0 0 62.62c0,18.73 9.77,31.18 29.84,31.18z"/>
   <path id="_3" class="fil0" d="M1730.54 1305.36c0,28.36 16.32,44.95 39.87,44.95 23.55,0 39.87,-17.12 39.87,-45.09 0,-26.76 -13.91,-42.01 -35.05,-44.55l0.71 -5.89 -11.26 0 0.53 5.89c-20.89,2.67 -34.67,18.73 -34.67,44.69zm12.04 0c0,-21.95 8.83,-33.32 22.61,-36.13 -0.53,2.81 -0.53,5.35 -0.53,7.9l0 29.16 11.23 0 0 -28.9c0,-2.67 -0.13,-5.35 -0.66,-8.29 14.31,2.67 22.88,13.91 22.88,36.12 0,24.89 -11.11,35.6 -27.7,35.6 -16.19,0 -27.83,-10.58 -27.83,-35.46z"/>
   <path id="_4" class="fil0" d="M1890.8 1348.71l11.51 0c-6.42,-14.85 -9.9,-29.84 -9.9,-51.92 0,-24.21 4.54,-32.11 16.32,-32.11 8.03,0 13.25,5.35 13.25,18.6l0 36.8 11.5 0 0 -36.8c0,-13.11 5.49,-18.73 14.05,-18.73 8.7,0 15.52,5.75 15.52,32.11 0,22.21 -3.88,37.33 -9.9,52.05l11.51 0c4.41,-10.04 10.43,-26.63 10.43,-52.18 0,-30.64 -11.23,-41.48 -27.16,-41.48 -11.5,0 -17.66,6.02 -20.2,16.05 -2.54,-10.03 -8.43,-16.05 -19.94,-16.05 -16.32,0 -27.29,10.43 -27.29,41.48 0,25.55 6.02,42.14 10.3,52.18z"/>
   <path id="_5" class="fil0" d="M2053.34 1348.71l12.18 0c-5.49,-13.38 -7.9,-23.42 -7.9,-35.73 0,-13.78 4.95,-20.33 14.85,-20.33 6.83,0 13.25,4.01 13.25,15.12l0 20.33 11.37 0 0 -20.33c0,-11.11 5.76,-15.12 12.98,-15.12 8.43,0 15.12,4.55 15.12,20.6 0,12.04 -2.81,22.21 -8.03,35.46l12.04 0c4.15,-9.37 8.3,-20.74 8.3,-35.73 0,-20.47 -11.24,-29.83 -25.69,-29.83 -10.97,0 -18.06,4.81 -20.34,14.71 -2.27,-9.9 -9.5,-14.71 -18.73,-14.71 -7.22,0 -12.18,2.67 -15.92,8.02 3.34,-10.3 10.84,-17.12 28.77,-19.93 12.97,-2.14 21.4,-4.02 27.16,-7.76l-4.42 -8.7c-4.82,2.68 -14.45,4.95 -26.63,7.36 -29.97,5.89 -36.39,21.14 -36.39,48.44 0,16.99 3.88,28.5 8.03,38.13z"/>
   <path id="_6" class="fil0" d="M2241.3 1256.65l-12.04 0c0,32.12 25.55,36.53 25.55,64.23 0,11.37 -5.35,20.07 -18.19,20.07 -12.45,0 -17.93,-8.43 -17.93,-19.8 0,-4.95 1.2,-10.44 3.21,-14.72l-9.9 -3.35c-3.88,6.56 -5.36,13.52 -5.36,19.4 0,16.33 11.38,27.97 29.98,27.97 18.59,0 30.5,-12.04 30.5,-29.44 0,-29.97 -25.82,-36.39 -25.82,-64.36z"/>
   <path id="_7" class="fil0" d="M2371.86 1282.08c-9.1,0 -16.32,3.88 -20.87,9.09l0 -15.25c0,-7.89 4.01,-11.24 11.24,-11.24 7.22,0 11.5,1.88 19.26,1.88 3.61,0 8.57,-0.54 12.58,-2.41l-1.74 -9.1c-4.28,1.47 -8.43,2.01 -11.1,2.01 -5.22,0 -11.11,-2.01 -19,-2.01 -13.25,0 -22.75,6.02 -22.75,21.27l0 40.14c0,20.07 9.9,33.99 29.97,33.99 20.34,0 30.37,-15.39 30.37,-35.19 0,-18.47 -9.76,-33.18 -27.96,-33.18zm-2.28 59.14c-13.64,0 -18.59,-11.24 -18.59,-24.89l0 -15.66c4.68,-5.48 10.83,-9.23 19.13,-9.23 11.11,0 17.39,7.9 17.39,23.82 0,15.39 -5.62,25.96 -17.93,25.96z"/>
   <path id="_8" class="fil0" d="M2470.31 1296.53c0,25.42 5.88,41.88 10.3,52.18l11.64 0c-6.69,-15.12 -10.04,-29.97 -10.04,-51.78 0,-23.42 5.62,-32.25 19.27,-32.25 13.52,0 19.27,10.57 19.27,31.98 0,22.48 -3.88,37.47 -10.04,52.05l11.65 0c4.41,-10.04 10.3,-26.49 10.3,-52.18 0,-29.97 -12.85,-41.48 -31.18,-41.48 -21.14,0 -31.17,13.65 -31.17,41.48z"/>
  </g>
 </g>
</svg>
