<?xml version="1.0" encoding="UTF-8"?>
<!DOCTYPE svg PUBLIC "-//W3C//DTD SVG 1.1//EN" "http://www.w3.org/Graphics/SVG/1.1/DTD/svg11.dtd">
<!-- Creator: CorelDRAW -->
<svg xmlns="http://www.w3.org/2000/svg" xml:space="preserve" width="3840px" height="2160px" version="1.1" style="shape-rendering:geometricPrecision; text-rendering:geometricPrecision; image-rendering:optimizeQuality; fill-rule:evenodd; clip-rule:evenodd"
viewBox="0 0 3840 2160"
 xmlns:xlink="http://www.w3.org/1999/xlink"
 xmlns:xodm="http://www.corel.com/coreldraw/odm/2003">
 <defs>
  <style type="text/css">
   <![CDATA[
    .fil0 {fill:black;fill-rule:nonzero}
   ]]>
  </style>
 </defs>
 <g id="Layer_x0020_1">
  <metadata id="CorelCorpID_0Corel-Layer"/>
  <g id="_1771150326896">
   <path class="fil0" d="M1272.14 1263.95l0 -6.6 37.17 0c19.53,0 29.28,8.1 29.28,24.31 0,8.34 -2.86,14.9 -8.59,19.66 -2.11,1.76 -5.13,3.33 -9.09,4.65l15.28 27.08c3.24,5.64 7.55,8.46 12.97,8.46l3.04 0 0 6.47 -20.32 0 -22.57 -40.69 -16.96 0 0 28.09c0,2.4 0.29,3.95 0.84,4.65 0.77,0.99 2.58,1.48 5.41,1.48l2.63 0 0 6.47 -29.09 0 0 -6.47 2.51 0c3.01,0 4.89,-0.49 5.57,-1.48 0.51,-0.75 0.77,-2.71 0.77,-5.94l0 -63.88c0,-2.53 -0.26,-4.14 -0.77,-4.85 -0.77,-0.94 -2.64,-1.41 -5.57,-1.41l-2.51 0zm20.21 1.33l0 34.21 13.21 0c14.54,0 21.8,-5.68 21.8,-17.04 0,-11.45 -6.69,-17.17 -20.06,-17.17l-14.95 0zm115.52 -7.93l66.32 0 0 20.32 -8.45 0 0 -6.58c0,-2.75 -0.64,-4.43 -1.94,-5.04 -0.73,-0.33 -2.82,-0.51 -6.25,-0.51l-29.46 0 0 31.84 23.25 0c2.66,0 4.38,-0.35 5.11,-1.06 0.72,-0.7 1.1,-2.29 1.1,-4.73l0 -3.09 7.53 0 0 26.05 -7.53 0 0 -4.09c0,-2.25 -0.51,-3.68 -1.5,-4.32 -0.81,-0.55 -2.6,-0.83 -5.35,-0.83l-22.61 0 0 34.61 33.42 0c2.62,0 4.32,-0.48 5.04,-1.48 0.51,-0.74 0.77,-2.35 0.77,-4.84l0 -5.68 8.33 0 0 20.06 -67.78 0 0 -6.47 3.15 0c2.6,0 4.27,-0.51 5,-1.55 0.46,-0.68 0.7,-2.31 0.7,-4.84l0 -65.42c0,-2.2 -0.3,-3.65 -0.9,-4.4 -0.73,-0.91 -2.33,-1.35 -4.8,-1.35l-3.15 0 0 -6.6zm185.96 3.3l0 19.97 -8.85 0 0 -3.48c0,-5.06 -0.75,-8.32 -2.27,-9.73 -3.21,-3.1 -8.01,-4.65 -14.38,-4.65 -5.79,0 -10.15,1.66 -13.03,4.98 -2.14,2.45 -3.22,5.33 -3.22,8.63 0,4.43 1.94,8.28 5.82,11.54 2.57,2.12 7.86,5.2 15.87,9.23 7.82,3.92 13.17,7.2 16.01,9.88 4.82,4.52 7.22,10.22 7.22,17.16 0,6.18 -1.83,11.6 -5.48,16.25 -5.24,6.62 -13.41,9.93 -24.46,9.93 -11.1,0 -20.57,-1.76 -28.45,-5.29l0 -22.7 9.51 0 0 5.02c0,4.32 0.88,7.47 2.64,9.49 3.28,3.79 8.59,5.68 15.96,5.68 5.25,0 9.61,-1.38 13.11,-4.18 3.7,-2.97 5.55,-6.92 5.55,-11.8 0,-4.69 -1.63,-8.61 -4.92,-11.76 -2.31,-2.18 -6.78,-4.96 -13.4,-8.3 -8.97,-4.49 -15.07,-8.19 -18.35,-11.1 -5.41,-4.82 -8.12,-10.55 -8.12,-17.18 0,-5.92 2.16,-11.05 6.45,-15.41 5.22,-5.24 12.57,-7.86 22.06,-7.86 8.92,0 17.16,1.89 24.73,5.68zm63.2 -3.3l79.01 0 0 21.8 -8.46 0 0 -8.19c0,-2.29 -0.29,-3.72 -0.84,-4.34 -0.72,-0.9 -2.57,-1.34 -5.54,-1.34l-18.98 0 0 69.07c0,3.17 0.3,5.13 0.9,5.86 0.75,0.85 2.68,1.3 5.83,1.3l2.78 0 0 6.47 -30.37 0 0 -6.47 3.68 0c2.71,0 4.38,-0.47 5.04,-1.37 0.51,-0.68 0.77,-2.4 0.77,-5.15l0 -69.71 -18.45 0c-3.1,0 -5.04,0.39 -5.79,1.16 -0.75,0.77 -1.12,2.71 -1.12,5.79l0 6.92 -8.46 0 0 -21.8zm164.95 -1.19l10.84 0 26.95 76.76c1.39,3.87 2.68,6.34 3.94,7.42 0.9,0.77 2.44,1.17 4.65,1.17l2.51 0 0 6.47 -29.73 0 0 -6.47 3.48 0c1.94,0 3.21,-0.14 3.83,-0.4 0.95,-0.38 1.41,-1.26 1.41,-2.62 0,-0.95 -0.46,-2.8 -1.41,-5.55l-4.91 -14.03 -34.7 0 -5.18 14.56c-0.81,1.58 -1.21,3.15 -1.21,4.69 0,2.22 1.79,3.35 5.38,3.35l3.72 0 0 6.47 -27.75 0 0 -6.47 2.38 0c2.42,0 4.23,-0.6 5.42,-1.81 0.94,-0.95 1.87,-2.73 2.77,-5.35l27.61 -78.19zm3.99 13.74l-14.42 41.09 29.08 0 -14.42 -41.09 -0.24 0zm95.42 -12.55l29.61 0 0 6.6 -3.17 0c-2.77,0 -4.47,0.51 -5.13,1.55 -0.46,0.72 -0.7,2.68 -0.7,5.88l0 44.08c0,7.22 1.12,12.77 3.34,16.64 3.72,6.45 10.57,9.67 20.61,9.67 15.92,0 23.87,-8.32 23.87,-24.95l0 -45.44c0,-3.24 -0.24,-5.22 -0.71,-5.95 -0.68,-0.99 -2.42,-1.48 -5.21,-1.48l-2.91 0 0 -6.6 27.48 0 0 6.6 -3.3 0c-2.6,0 -4.19,0.51 -4.8,1.55 -0.42,0.66 -0.64,2.31 -0.64,4.97l0 45.65c0,22.83 -11.43,34.24 -34.26,34.24 -23.41,0 -35.1,-11.19 -35.1,-33.54l0 -46.35c0,-2.57 -0.31,-4.25 -0.9,-4.97 -0.82,-1.04 -2.71,-1.55 -5.71,-1.55l-2.37 0 0 -6.6zm147.93 6.6l0 -6.6 37.16 0c19.54,0 29.29,8.1 29.29,24.31 0,8.34 -2.86,14.9 -8.59,19.66 -2.11,1.76 -5.13,3.33 -9.09,4.65l15.28 27.08c3.24,5.64 7.55,8.46 12.97,8.46l3.04 0 0 6.47 -20.33 0 -22.57 -40.69 -16.95 0 0 28.09c0,2.4 0.29,3.95 0.84,4.65 0.77,0.99 2.57,1.48 5.41,1.48l2.62 0 0 6.47 -29.08 0 0 -6.47 2.51 0c3.01,0 4.89,-0.49 5.57,-1.48 0.5,-0.75 0.77,-2.71 0.77,-5.94l0 -63.88c0,-2.53 -0.27,-4.14 -0.77,-4.85 -0.77,-0.94 -2.64,-1.41 -5.57,-1.41l-2.51 0zm20.21 1.33l0 34.21 13.21 0c14.53,0 21.8,-5.68 21.8,-17.04 0,-11.45 -6.69,-17.17 -20.06,-17.17l-14.95 0zm148.55 -9.12l10.83 0 26.95 76.76c1.39,3.87 2.69,6.34 3.94,7.42 0.91,0.77 2.45,1.17 4.65,1.17l2.51 0 0 6.47 -29.72 0 0 -6.47 3.47 0c1.94,0 3.22,-0.14 3.84,-0.4 0.94,-0.38 1.4,-1.26 1.4,-2.62 0,-0.95 -0.46,-2.8 -1.4,-5.55l-4.92 -14.03 -34.7 0 -5.17 14.56c-0.82,1.58 -1.21,3.15 -1.21,4.69 0,2.22 1.78,3.35 5.37,3.35l3.72 0 0 6.47 -27.74 0 0 -6.47 2.38 0c2.42,0 4.22,-0.6 5.41,-1.81 0.95,-0.95 1.87,-2.73 2.78,-5.35l27.61 -78.19zm3.98 13.74l-14.42 41.09 29.09 0 -14.42 -41.09 -0.25 0zm103.22 -12.55l26.04 0 40.87 73.48 0.33 0 0 -60.12c0,-2.81 -0.29,-4.58 -0.84,-5.28 -0.77,-0.99 -2.73,-1.48 -5.9,-1.48l-2.24 0 0 -6.6 26.95 0 0 6.6 -2.91 0c-2.84,0 -4.6,0.51 -5.3,1.55 -0.51,0.7 -0.78,2.44 -0.78,5.24l0 78.43 -11.73 0 -46.26 -82.99 -0.27 0 0 68.54c0,2.8 0.27,4.56 0.77,5.31 0.75,0.99 2.56,1.48 5.44,1.48l2.67 0 0 6.47 -26.84 0 0 -6.47 3.17 0c2.66,0 4.31,-0.53 4.97,-1.61 0.46,-0.73 0.71,-2.67 0.71,-5.81l0 -64.28c0,-2.35 -0.27,-3.85 -0.77,-4.51 -0.73,-0.91 -2.51,-1.35 -5.31,-1.35l-2.77 0 0 -6.6zm143.43 0l79.01 0 0 21.8 -8.46 0 0 -8.19c0,-2.29 -0.28,-3.72 -0.83,-4.34 -0.73,-0.9 -2.58,-1.34 -5.55,-1.34l-18.98 0 0 69.07c0,3.17 0.31,5.13 0.9,5.86 0.75,0.85 2.69,1.3 5.84,1.3l2.77 0 0 6.47 -30.36 0 0 -6.47 3.67 0c2.71,0 4.38,-0.47 5.04,-1.37 0.51,-0.68 0.78,-2.4 0.78,-5.15l0 -69.71 -18.46 0c-3.1,0 -5.04,0.39 -5.79,1.16 -0.75,0.77 -1.12,2.71 -1.12,5.79l0 6.92 -8.46 0 0 -21.8z"/>
   <path class="fil0" d="M2295.93 1147.32c0.01,2.22 -0.37,4.51 -1.15,6.67 -1.05,2.89 -2.77,5.44 -4.98,7.46 -1.46,1.32 -3.13,2.43 -4.98,3.25 -4.42,1.99 -9.28,2.15 -13.83,0.58 -2.19,-0.75 -4.24,-1.88 -6.02,-3.37l-137.37 -114.7c-0.74,-0.61 -16.28,-13.03 -18.47,-15.79 -1.35,-1.71 -2.33,-3.51 -2.98,-5.36 -0.93,-2.66 -1.2,-5.23 -0.91,-7.7 0.31,-2.67 1.24,-5.12 2.68,-7.36 0.89,-1.4 2,-2.66 3.28,-3.79 1.22,-1.09 2.58,-2 4.04,-2.77 2.33,-1.22 4.05,-1.77 6.74,-2.31 1.85,-0.38 4.03,-0.53 6.36,-0.55 4.81,-0.06 10.23,0.38 14.56,0.43 0.72,0 1.28,-0.01 5.97,-0.01 6.06,0 10.9,-0.05 14.53,-0.14 4.26,-0.11 8.42,-0.28 12.48,-0.51 5.64,-0.33 11.32,-0.79 16.92,-1.61 3.19,-0.47 6.33,-1.07 9.59,-1.84 2.36,-0.57 4.65,-1.2 6.85,-1.89 2.23,-0.71 4.32,-1.46 6.26,-2.24 4.78,-1.94 10.51,-4.95 14.64,-7.72 2.74,-1.82 5.21,-3.75 7.43,-5.77 2.15,-1.98 4.19,-4.18 6.12,-6.6 1.89,-2.37 3.58,-4.87 5.07,-7.5 1.54,-2.71 2.88,-5.56 4.03,-8.54 1.13,-2.94 2.1,-6.13 2.91,-9.55 0.82,-3.48 1.43,-7.09 1.82,-10.81 0.4,-3.71 0.6,-7.71 0.6,-12.02 0,-3.76 -0.16,-7.24 -0.49,-10.44 -0.35,-3.37 -0.86,-6.56 -1.53,-9.55 -0.64,-2.92 -1.49,-5.86 -2.54,-8.81 -1.01,-2.85 -2.18,-5.59 -3.51,-8.22 -1.36,-2.7 -2.83,-5.21 -4.42,-7.54 -1.54,-2.27 -3.34,-4.55 -5.38,-6.84 -2,-2.26 -4.11,-4.34 -6.31,-6.25 -2.23,-1.93 -4.69,-3.81 -7.39,-5.64l-1.47 -1c-1.19,-0.74 -2.4,-1.45 -3.62,-2.1 -1.61,-0.86 -3.49,-1.74 -5.66,-2.65 -2.24,-0.95 -4.28,-1.71 -6.11,-2.3 -2.03,-0.64 -4.18,-1.21 -6.47,-1.72 -2.23,-0.51 -4.77,-0.96 -7.62,-1.36 -2.74,-0.38 -5.87,-0.72 -9.41,-1 -3.81,-0.31 -7.52,-0.53 -11.13,-0.66 -3.45,-0.12 -7.74,-0.18 -12.86,-0.18l-75.55 0 0 295.65c0,4.06 0.13,6.44 -1.64,10.46 -1.01,2.3 -2.45,4.33 -4.19,6.01 -1.74,1.67 -3.8,3.02 -6.06,3.93 -4.87,1.97 -10.13,1.83 -14.89,-0.32 -2.37,-1.07 -4.42,-2.59 -6.11,-4.46 -1.61,-1.77 -2.87,-3.83 -3.72,-6.09 -0.84,-2.21 -1.28,-4.56 -1.28,-6.93l0 -316.6c0,-2.68 0.49,-5.14 1.36,-7.37 1.9,-4.92 5.67,-8.74 10.57,-10.71 2.68,-1.07 5.3,-1.46 7.52,-1.46l98.67 0c9.62,0 18.86,0.6 27.72,1.8 8.83,1.19 17.14,2.98 24.93,5.38 8.03,2.46 15.46,5.54 22.31,9.25 13.58,7.34 25.54,17.51 34.55,30.09 4.41,6.15 8.09,12.83 11.04,20.07 2.84,6.95 4.98,14.46 6.43,22.53 1.43,8.02 2.15,16.36 2.15,25.03 0,8.96 -0.75,17.53 -2.26,25.71 -1.51,8.19 -3.79,15.87 -6.84,23.06 -3.14,7.4 -7.03,14.18 -11.67,20.34 -4.66,6.17 -10.11,11.78 -16.34,16.81 -6.04,4.87 -12.8,9.14 -20.27,12.82 -7.33,3.6 -15.31,6.59 -23.96,8.97 -8.49,2.33 -17.47,4.07 -26.95,5.2 -4.6,0.55 -9.34,0.97 -14.2,1.26 8.62,7.54 19.51,16.61 31.14,26.1 21.9,17.89 45.41,36.45 62.32,49.79 7.63,6.03 13.29,10.5 13.76,10.86 3.41,2.72 7.21,5.36 10.15,8.61 2.84,3.15 4.5,6.5 4.93,10.5 0.07,0.66 0.11,1.33 0.11,2.03zm282.31 -143.98c2.55,-1.32 5.52,-2.08 8.88,-2.08l11.11 0c0,-41.3 -0.06,-82.7 -0.06,-123.92 0,-4.38 0.42,-8.74 1.24,-13.04 0.81,-4.31 2.03,-8.5 3.63,-12.49 1.6,-3.99 3.61,-7.84 6,-11.48 2.43,-3.7 5.15,-7.06 8.11,-10.03 6.69,-6.69 12.04,-10.4 21.56,-14.26 3.96,-1.61 8.13,-2.84 12.46,-3.68 4.27,-0.82 8.63,-1.25 13.02,-1.25l162.17 0c2.26,0 4.73,0.43 7.13,1.38 3.27,1.28 3.62,1.47 6.19,3.91 1.82,1.72 3.34,3.79 4.36,6.25 0.93,2.21 1.46,4.68 1.46,7.41 0,2.65 -0.53,5.15 -1.52,7.46 -1.02,2.41 -2.53,4.52 -4.39,6.28 -1.78,1.67 -3.86,2.97 -6.16,3.86 -2.26,0.88 -4.65,1.34 -7.07,1.34l-162.08 0c-1.85,0 -3.58,0.18 -5.19,0.52 -1.76,0.36 -3.48,0.92 -5.13,1.63 -1.73,0.73 -3.39,1.66 -4.95,2.72 -1.65,1.13 -3.17,2.38 -4.54,3.75 -1.39,1.4 -2.63,2.88 -3.67,4.41 -0.83,1.22 -1.56,2.49 -2.19,3.81l-0.47 1.11c-0.69,1.63 -1.23,3.32 -1.58,5.06 -0.33,1.59 -0.5,3.35 -0.5,5.27 0,41.25 0.11,82.69 0.22,124.02l150.51 0.02 0 -0.06 9.55 0 30.33 0c4.05,0 7.58,1.17 10.52,3.1 3.28,2.16 5.63,5.18 7.03,8.55 0.49,1.16 0.86,2.37 1.1,3.59 0.21,1.11 0.33,2.35 0.34,3.69 0,1.32 -0.11,2.58 -0.33,3.74 -0.25,1.26 -0.61,2.49 -1.1,3.66 -1.41,3.38 -3.76,6.39 -7.05,8.53 -2.93,1.89 -6.44,3.03 -10.51,3.03l-30.33 0 -159.94 0 -0.36 89.39 190.32 0c2.33,0 4.6,0.42 6.73,1.21 2.17,0.8 4.17,1.99 5.92,3.5 1.91,1.66 3.48,3.67 4.59,5.97 2.41,4.96 2.52,10.9 0.29,15.93 -1.12,2.52 -2.75,4.65 -4.73,6.41l0.02 0.01c-1.67,1.48 -3.56,2.62 -5.56,3.42 -0.91,0.36 -1.84,0.66 -2.78,0.87 -1.95,0.46 -3.59,0.57 -5.52,0.57l-208.1 0c-7.68,0 -14.06,-4.2 -17.26,-11.17 -2.67,-5.82 -1.73,-15.03 -1.73,-21.86l0.01 -94.25 -11.12 0c-4.08,0 -7.62,-1.18 -10.56,-3.15 -3.17,-2.12 -5.51,-5.17 -6.88,-8.61 -0.86,-2.12 -1.34,-4.39 -1.43,-6.68 -0.1,-2.43 0.24,-4.88 1.05,-7.19 1.56,-4.43 4.78,-8.03 8.94,-10.18zm-823.93 39.96c1.13,6.06 1.7,12.33 1.7,18.82 0,7.82 -0.78,15.31 -2.33,22.47 -1.56,7.18 -3.91,14.01 -7.06,20.51 -3.16,6.53 -7.07,12.6 -11.73,18.23 -4.65,5.61 -10.03,10.79 -16.14,15.53 -5.95,4.63 -12.47,8.7 -19.56,12.22 -6.89,3.42 -14.36,6.29 -22.41,8.61 -7.81,2.25 -16.04,3.94 -24.71,5.06 -8.78,1.12 -17.82,1.69 -27.13,1.69 -3.78,0 -7.72,-0.13 -11.84,-0.4 -3.82,-0.25 -7.76,-0.64 -11.82,-1.18 -3.81,-0.5 -7.65,-1.14 -11.51,-1.92 -3.82,-0.76 -7.59,-1.66 -11.31,-2.68 -3.84,-1.04 -7.52,-2.19 -11.05,-3.42 -2.91,-1.02 -5.67,-2.06 -8.28,-3.13 -4.29,-1.76 -8.6,-3.81 -12.71,-5.95 -3.87,-2.02 -7.69,-4.19 -11.37,-6.54 -5.02,-3.12 -7.07,-4.68 -11.2,-7.89 -2.08,-1.61 -4.13,-3.28 -6.12,-5 -1.64,-1.42 -3.22,-2.85 -4.76,-4.3 -2.49,-2.35 -4.9,-4.8 -7.15,-7.36 -1.49,-1.69 -2.93,-3.49 -4.34,-5.26 -0.48,-0.61 -0.96,-1.22 -1.44,-1.83 -0.88,-1.12 -1.88,-2.31 -2.79,-3.49 -2.94,-3.81 -4.68,-7.86 -4.6,-12.77 0.05,-3.79 1.27,-7.61 3.48,-10.69 1.22,-1.69 2.7,-3.12 4.4,-4.42 2.07,-1.58 4.55,-2.83 8.19,-3.35 9.61,-1.38 14.92,3.45 18.45,8.3 2.44,3.37 5.07,6.59 7.88,9.63 3.55,3.81 7.52,7.5 11.66,10.7 2.56,1.99 5.32,3.9 8.3,5.77 3.89,2.43 8.07,4.67 12.54,6.7 4.64,2.11 9.37,3.94 14.19,5.51 4.87,1.59 9.81,2.9 14.81,3.95 5.08,1.05 10.26,1.84 15.53,2.36 5.13,0.51 10.58,0.77 16.33,0.77 7.34,0 14.15,-0.42 20.44,-1.26 6.26,-0.83 12.23,-2.1 17.92,-3.8 5.5,-1.65 10.64,-3.69 15.41,-6.12 4.77,-2.42 9.19,-5.22 13.25,-8.41 4.01,-3.14 7.49,-6.45 10.42,-9.94 2.58,-3.07 4.79,-6.37 6.64,-9.89l0.52 -1.05c1.92,-3.86 3.34,-7.87 4.27,-12.03 0.94,-4.23 1.41,-8.82 1.41,-13.75 0,-4.1 -0.33,-7.9 -0.98,-11.37 -0.65,-3.45 -1.62,-6.68 -2.91,-9.7 -1.28,-3 -2.86,-5.78 -4.72,-8.34 -1.9,-2.61 -4.15,-5.06 -6.74,-7.36l-0.02 0.02c-2.75,-2.42 -5.88,-4.67 -9.37,-6.73 -3.64,-2.15 -7.66,-4.11 -12.07,-5.87 -4.62,-1.86 -9.68,-3.51 -15.17,-4.96 -7.85,-2.07 -15.85,-3.48 -23.87,-4.72 -0.85,-0.13 -3.02,-0.45 -6.72,-0.98 -3.45,-0.5 -6.17,-0.89 -7.97,-1.13 -10.17,-1.39 -20.2,-2.72 -30.36,-4.55 -7.13,-1.3 -13.47,-2.63 -19.02,-4.02 -5.97,-1.49 -11.33,-3.08 -16.06,-4.8 -3.87,-1.4 -7.36,-2.9 -10.48,-4.5l-0.17 0 -2.13 -1.21c-3.18,-1.79 -6.22,-3.79 -9.13,-5.98 -2.94,-2.2 -5.65,-4.54 -8.14,-7 -6.37,-6.29 -8.84,-9.62 -13.08,-17.03 -1.77,-3.08 -3.34,-6.35 -4.72,-9.78 -1.36,-3.41 -2.49,-6.87 -3.37,-10.39 -0.89,-3.53 -1.55,-7.13 -1.99,-10.8 -0.44,-3.71 -0.66,-7.44 -0.66,-11.22 0,-7.07 0.69,-13.91 2.09,-20.55 1.4,-6.66 3.49,-12.99 6.27,-19.02 2.77,-5.99 6.24,-11.68 10.4,-17.04 4.09,-5.27 8.88,-10.24 14.37,-14.91 5.47,-4.66 11.22,-8.67 17.24,-12.03 6.14,-3.45 12.62,-6.29 19.44,-8.55 6.7,-2.22 13.78,-3.88 21.23,-5 7.38,-1.1 15.04,-1.65 23,-1.65 6.81,0 13.5,0.38 20.07,1.14 6.52,0.75 12.88,1.9 19.1,3.43 2.93,0.72 5.98,1.59 9.14,2.59 3.23,1.03 6.19,2.07 8.89,3.13 2.88,1.14 5.75,2.38 8.61,3.73 2.85,1.36 5.69,2.79 8.43,4.34 1.37,0.76 3.13,1.82 5.28,3.17 2,1.25 3.79,2.42 5.37,3.51 1.63,1.12 3.34,2.35 5.13,3.7 1.81,1.36 3.52,2.69 5.12,3.99 1.11,0.9 2.57,2.12 4.09,3.44 3.38,2.93 8.15,7.18 10.31,10.78 0.48,0.79 0.9,1.61 1.27,2.46 1.49,3.39 2.09,7.16 1.44,10.85 -0.41,2.31 -1.28,4.58 -2.53,6.62 -0.78,1.27 -1.71,2.46 -2.79,3.54 -2.89,2.87 -6.8,4.84 -10.85,5.3 -4.04,0.45 -7.81,-0.09 -11.42,-2.04 -3.77,-2.04 -5.41,-4.66 -8.2,-7.42 -1.62,-1.59 -3.33,-3.14 -5.13,-4.64 -2.47,-2.06 -5.07,-3.99 -7.78,-5.79 -2.7,-1.78 -5.61,-3.49 -8.75,-5.11 -3.19,-1.66 -6.41,-3.14 -9.66,-4.45 -3.54,-1.42 -7.08,-2.65 -10.61,-3.69 -3.54,-1.03 -7.19,-1.9 -10.95,-2.61 -3.78,-0.72 -7.55,-1.25 -11.31,-1.59 -3.6,-0.33 -7.53,-0.5 -11.78,-0.5 -6.09,0 -11.8,0.4 -17.15,1.18 -5.31,0.77 -10.33,1.92 -15.06,3.46 -4.7,1.53 -9.08,3.39 -13.14,5.61 -3.48,1.9 -6.76,4.05 -9.84,6.46l-1.59 1.33c-3.52,2.94 -6.56,6.03 -9.15,9.27 -2.54,3.2 -4.64,6.53 -6.3,10.02 -1.65,3.48 -2.9,7.17 -3.73,11.06 -0.84,3.91 -1.25,8.09 -1.25,12.53 0,2.36 0.13,4.62 0.39,6.78 0.28,2.27 0.67,4.35 1.16,6.24 0.5,1.87 1.15,3.78 1.95,5.71 1.57,3.76 3.56,7.2 6.1,10.38 1.23,1.55 2.57,3 4,4.35 1.48,1.38 3.02,2.63 4.63,3.76 1.58,1.1 3.43,2.2 5.53,3.3 2.52,1.31 4.93,2.26 7.67,3.18 3.17,1.05 7.14,2.13 11.92,3.27 4.85,1.14 10.34,2.26 16.49,3.34 6.45,1.14 13.19,2.19 20.19,3.15l2.47 0.33c3.09,0.42 5.13,0.69 5.62,0.75 3.04,0.41 5.18,0.7 6.18,0.84 2.76,0.39 4.7,0.66 5.74,0.81 0.84,0.14 2.52,0.4 5.14,0.82 8.27,1.31 16.08,2.92 23.42,4.8 7.42,1.9 14.27,4.07 20.54,6.5 6.59,2.56 12.61,5.4 18.06,8.55 7.37,4.25 14.11,9.3 19.97,15.32 2.56,2.64 4.96,5.47 7.16,8.5 6.32,8.69 11.81,21.98 13.82,32.69zm-499.8 -4.15l-11.12 0c-8.88,0 -14.62,-4.54 -17.56,-11.77 -0.45,-1.12 -0.8,-2.3 -1.03,-3.54 -0.22,-1.11 -0.33,-2.33 -0.34,-3.63 0,-1.31 0.11,-2.55 0.33,-3.71 0.23,-1.2 0.59,-2.41 1.09,-3.62 1.41,-3.42 3.73,-6.45 6.98,-8.58 2.91,-1.9 6.43,-3.04 10.53,-3.04l11.11 0c0,-40.39 -0.06,-80.9 -0.06,-121.2l0 -2.72c0,-4.38 0.42,-8.74 1.24,-13.04 0.81,-4.31 2.03,-8.5 3.63,-12.49 1.6,-3.98 3.6,-7.82 5.99,-11.45 1.26,-1.91 2.6,-3.74 4.03,-5.48 1.73,-2.11 2.99,-3.45 5.03,-5.47 2.77,-2.74 5.88,-5.15 9.16,-7.32 3.62,-2.4 7.46,-4.43 11.46,-6.05 3.96,-1.61 8.13,-2.84 12.47,-3.68 4.26,-0.82 8.62,-1.25 13.01,-1.25l162.17 0c2.13,0 4.27,0.4 6.29,1.12 4.97,1.78 9.3,5.55 11.35,10.41 0.96,2.26 1.5,4.74 1.5,7.42 0,2.65 -0.53,5.15 -1.52,7.46 -1.02,2.41 -2.53,4.52 -4.39,6.28 -1.78,1.67 -3.86,2.97 -6.16,3.86 -2.26,0.88 -4.65,1.34 -7.07,1.34l-162.08 0c-1.85,0 -3.58,0.18 -5.19,0.52 -1.76,0.36 -3.48,0.92 -5.13,1.63 -1.73,0.73 -3.38,1.66 -4.95,2.72 -1.65,1.12 -3.16,2.38 -4.53,3.75 -1.4,1.4 -2.64,2.88 -3.68,4.41 -0.83,1.22 -1.56,2.49 -2.19,3.81l-0.47 1.11c-0.69,1.63 -1.23,3.32 -1.58,5.06 -0.32,1.59 -0.5,3.35 -0.5,5.27 0,41.25 -0.12,82.69 -0.15,124.02l151.34 0.02 0 -0.06 9.09 0 30.33 0c4.05,0 7.58,1.17 10.52,3.1 3.28,2.16 5.63,5.18 7.03,8.55 0.49,1.16 0.86,2.37 1.1,3.59 0.22,1.11 0.33,2.35 0.34,3.69 0,1.32 -0.11,2.58 -0.33,3.75 -0.25,1.26 -0.61,2.48 -1.1,3.65 -1.41,3.38 -3.76,6.39 -7.05,8.53 -2.92,1.89 -6.44,3.03 -10.51,3.03l-30.33 0 -160.34 0 0 89.39 190.36 0c2.33,0 4.6,0.42 6.73,1.21 2.17,0.8 4.17,1.99 5.92,3.5 1.91,1.66 3.48,3.67 4.6,5.97 0.44,0.91 0.81,1.87 1.1,2.85 0.84,2.9 0.93,5.35 0.59,8.3 -0.8,6.77 -5.46,12.13 -11.69,14.62 -2.16,0.86 -4.88,1.44 -7.25,1.44l-209.14 0c-2.47,0 -4.77,-0.48 -6.88,-1.3 -2.36,-0.91 -4.34,-2.22 -5.98,-3.72 -1.95,-1.8 -3.4,-3.98 -4.4,-6.15 -1.21,-2.65 -1.79,-5.44 -1.79,-7.6 0,-36.1 0.07,-72.33 0.07,-108.51zm-13.1 108.17c0.01,2.22 -0.37,4.51 -1.15,6.67 -1.05,2.89 -2.77,5.44 -4.98,7.46 -1.46,1.32 -3.13,2.43 -4.98,3.25 -4.42,1.99 -9.28,2.15 -13.83,0.58 -2.19,-0.75 -4.24,-1.88 -6.02,-3.37l-137.37 -114.7c-0.74,-0.61 -16.28,-13.03 -18.47,-15.79 -1.35,-1.71 -2.33,-3.51 -2.98,-5.36 -0.93,-2.66 -1.2,-5.23 -0.91,-7.7 0.31,-2.67 1.24,-5.12 2.68,-7.36 0.89,-1.4 2,-2.66 3.28,-3.79 1.21,-1.09 2.58,-2 4.04,-2.77 2.33,-1.22 4.05,-1.77 6.74,-2.31 1.84,-0.38 4.03,-0.53 6.36,-0.55 4.81,-0.06 10.23,0.38 14.56,0.43 0.72,0 1.28,-0.01 5.97,-0.01 6.06,0 10.9,-0.05 14.53,-0.14 4.26,-0.11 8.42,-0.28 12.48,-0.51 5.64,-0.33 11.32,-0.79 16.91,-1.61 3.2,-0.47 6.34,-1.07 9.6,-1.84 2.36,-0.57 4.65,-1.2 6.85,-1.89 2.23,-0.71 4.32,-1.46 6.26,-2.24 4.78,-1.94 10.51,-4.95 14.64,-7.72 2.74,-1.82 5.21,-3.75 7.43,-5.77 2.15,-1.98 4.19,-4.18 6.12,-6.6 1.89,-2.37 3.58,-4.87 5.07,-7.5 1.54,-2.71 2.88,-5.56 4.03,-8.54 1.13,-2.94 2.1,-6.13 2.91,-9.55 0.82,-3.48 1.42,-7.09 1.82,-10.81 0.4,-3.71 0.6,-7.71 0.6,-12.02 0,-3.76 -0.17,-7.24 -0.5,-10.44 -0.34,-3.37 -0.85,-6.56 -1.52,-9.55 -0.64,-2.92 -1.49,-5.86 -2.54,-8.81 -1.02,-2.85 -2.19,-5.59 -3.51,-8.22 -1.36,-2.7 -2.83,-5.21 -4.42,-7.54 -1.54,-2.27 -3.34,-4.55 -5.38,-6.84 -2,-2.26 -4.11,-4.34 -6.31,-6.25 -2.23,-1.93 -4.69,-3.81 -7.39,-5.64l-1.47 -1c-1.19,-0.74 -2.4,-1.45 -3.62,-2.1 -1.61,-0.86 -3.49,-1.74 -5.66,-2.65 -2.24,-0.95 -4.28,-1.71 -6.12,-2.3 -2.02,-0.64 -4.17,-1.21 -6.46,-1.72 -2.23,-0.51 -4.77,-0.96 -7.62,-1.36 -2.74,-0.38 -5.87,-0.72 -9.41,-1 -3.81,-0.31 -7.52,-0.53 -11.14,-0.66 -3.44,-0.12 -7.73,-0.18 -12.86,-0.18l-75.54 0 0 295.65c0,4.06 0.12,6.44 -1.64,10.46 -1.01,2.3 -2.45,4.33 -4.19,6.01 -1.74,1.67 -3.8,3.02 -6.07,3.93 -4.86,1.97 -10.12,1.83 -14.88,-0.32 -2.37,-1.07 -4.42,-2.59 -6.11,-4.46 -1.61,-1.77 -2.87,-3.83 -3.72,-6.09 -0.84,-2.21 -1.28,-4.56 -1.28,-6.93l0 -316.6c0,-2.68 0.49,-5.14 1.36,-7.37 1.9,-4.92 5.67,-8.74 10.57,-10.71 2.68,-1.07 5.29,-1.46 7.52,-1.46l98.67 0c9.62,0 18.86,0.6 27.72,1.8 8.83,1.19 17.14,2.98 24.93,5.38 8.02,2.46 15.46,5.54 22.31,9.25 13.58,7.34 25.54,17.51 34.55,30.09 4.41,6.15 8.09,12.83 11.04,20.07 2.84,6.95 4.98,14.46 6.43,22.53 1.43,8.02 2.15,16.36 2.15,25.03 0,8.96 -0.76,17.53 -2.27,25.71 -1.51,8.19 -3.78,15.87 -6.83,23.06 -3.14,7.4 -7.03,14.18 -11.67,20.34 -4.66,6.17 -10.11,11.78 -16.35,16.81 -6.03,4.87 -12.79,9.14 -20.26,12.82 -7.33,3.6 -15.31,6.59 -23.96,8.97 -8.49,2.33 -17.48,4.07 -26.95,5.2 -4.6,0.55 -9.34,0.97 -14.2,1.26 8.62,7.54 19.5,16.61 31.13,26.1 21.91,17.89 45.42,36.45 62.33,49.79 7.63,6.03 13.3,10.5 13.76,10.86 3.41,2.72 7.21,5.36 10.14,8.61 2.85,3.15 4.51,6.5 4.94,10.5 0.07,0.66 0.11,1.33 0.11,2.03zm1183.77 1.24l-128.59 -305.45c-1.11,-2.62 -2.67,-5.8 -3.35,-8.67 -0.21,-0.9 -0.36,-1.8 -0.45,-2.71 -0.18,-1.9 -0.1,-3.74 0.24,-5.47 0.44,-2.22 1.26,-4.31 2.44,-6.2 1.33,-2.06 3.1,-4.06 5.83,-5.92 2.22,-1.53 5.89,-2.62 8.54,-2.88 1.91,-0.18 3.84,-0.09 5.73,0.31 2.11,0.46 4.18,1.28 6.13,2.53 1.84,1.18 3.48,2.66 4.87,4.47 2.4,3.16 3.41,6.49 4.94,10.15l113.69 271.86 115.99 -277.38c0.67,-1.59 1.51,-3.05 2.48,-4.36 1.06,-1.43 2.24,-2.64 3.49,-3.64 1.64,-1.29 3.38,-2.25 5.18,-2.91 1.88,-0.69 3.85,-1.04 5.84,-1.11 1.39,-0.04 2.74,0.06 4.05,0.3 1.44,0.27 2.77,0.67 3.97,1.18 3.37,1.45 6.04,3.75 7.95,6.47 2.19,3.12 3.39,6.8 3.51,10.38 0.04,1.44 -0.06,2.87 -0.32,4.26l-0.01 0c-0.26,1.37 -0.67,2.73 -1.24,4.05l-1.8 4.23 -117.19 278.78 -9.94 23.66c-1.44,3.4 -2.74,6.85 -4.48,10.1 -0.84,1.59 -1.72,2.97 -2.67,4.2 -1.42,1.81 -2.94,3.28 -4.61,4.44 -1.33,0.93 -2.85,1.68 -4.38,2.21 -1.9,0.67 -3.88,0.99 -5.97,0.99 -3.43,0 -6.42,-0.83 -9.16,-2.47 -2.53,-1.53 -4.56,-3.59 -6.29,-6.22 -0.78,-1.17 -1.45,-2.41 -2.1,-3.78 -0.16,-0.36 -0.35,-0.77 -0.56,-1.25 -0.6,-1.37 -1.17,-2.76 -1.76,-4.15zm-724.3 -269.08l0 -0.01c-0.07,-0.08 -0.04,-0.04 0,0.01zm67.4 123.86c2.56,-1.32 5.53,-2.08 8.89,-2.08l11.11 0c0,-41.3 -0.06,-82.7 -0.06,-123.92 0,-4.38 0.42,-8.74 1.23,-13.04 0.82,-4.31 2.04,-8.5 3.64,-12.49 1.59,-3.99 3.6,-7.84 6,-11.48 2.43,-3.7 5.14,-7.06 8.11,-10.03 6.69,-6.69 12.04,-10.4 21.56,-14.26 3.96,-1.61 8.12,-2.84 12.46,-3.68 4.27,-0.82 8.63,-1.25 13.02,-1.25l162.17 0c2.25,0 4.72,0.43 7.12,1.38 3.28,1.28 3.62,1.47 6.2,3.91 1.82,1.72 3.33,3.79 4.36,6.25 0.93,2.21 1.46,4.68 1.46,7.41 0,2.65 -0.54,5.15 -1.52,7.46 -1.03,2.41 -2.53,4.52 -4.4,6.28 -1.77,1.67 -3.86,2.97 -6.15,3.86 -2.26,0.88 -4.66,1.34 -7.07,1.34l-162.08 0c-1.85,0 -3.59,0.18 -5.2,0.52 -1.76,0.36 -3.48,0.92 -5.13,1.63 -1.72,0.73 -3.38,1.66 -4.95,2.72 -1.64,1.13 -3.16,2.38 -4.53,3.75 -1.4,1.4 -2.64,2.88 -3.68,4.41 -0.82,1.22 -1.56,2.49 -2.19,3.81l-0.46 1.11c-0.7,1.63 -1.23,3.32 -1.58,5.06 -0.33,1.59 -0.5,3.35 -0.5,5.27 0,41.25 0.11,82.69 0.21,124.02l150.52 0.02 -0.01 -0.06 9.55 0 30.33 0c4.06,0 7.59,1.17 10.53,3.1 3.28,2.16 5.63,5.18 7.03,8.55 0.49,1.16 0.85,2.37 1.09,3.59 0.22,1.11 0.33,2.35 0.34,3.69 0.01,1.32 -0.1,2.58 -0.33,3.74 -0.24,1.26 -0.61,2.49 -1.09,3.66 -1.42,3.38 -3.77,6.39 -7.05,8.53 -2.93,1.89 -6.45,3.03 -10.52,3.03l-30.33 0 -159.93 0 -0.37 89.39 190.33 0c2.32,0 4.59,0.42 6.72,1.21 2.17,0.8 4.18,1.99 5.92,3.5 1.91,1.66 3.48,3.67 4.6,5.97 2.41,4.96 2.52,10.9 0.28,15.93 -1.11,2.52 -2.75,4.65 -4.72,6.41l0.01 0.01c-1.66,1.48 -3.56,2.62 -5.55,3.42 -0.91,0.36 -1.84,0.66 -2.79,0.87 -1.95,0.46 -3.58,0.57 -5.52,0.57l-208.09 0c-7.69,0 -14.07,-4.2 -17.26,-11.17 -2.67,-5.82 -1.73,-15.03 -1.73,-21.86l0 -94.25 -11.11 0c-4.08,0 -7.63,-1.18 -10.57,-3.15 -3.17,-2.12 -5.5,-5.17 -6.88,-8.61 -0.85,-2.12 -1.34,-4.39 -1.43,-6.68 -0.1,-2.43 0.25,-4.88 1.06,-7.19 1.56,-4.43 4.77,-8.03 8.93,-10.18z"/>
  </g>
 </g>
</svg>
