<?xml version="1.0" encoding="UTF-8"?>
<!DOCTYPE svg PUBLIC "-//W3C//DTD SVG 1.1//EN" "http://www.w3.org/Graphics/SVG/1.1/DTD/svg11.dtd">
<!-- Creator: CorelDRAW -->
<svg xmlns="http://www.w3.org/2000/svg" xml:space="preserve" width="2480px" height="3508px" version="1.1" style="shape-rendering:geometricPrecision; text-rendering:geometricPrecision; image-rendering:optimizeQuality; fill-rule:evenodd; clip-rule:evenodd"
viewBox="0 0 2480 3507.43"
 xmlns:xlink="http://www.w3.org/1999/xlink"
 xmlns:xodm="http://www.corel.com/coreldraw/odm/2003">
 <defs>
  <style type="text/css">
   <![CDATA[
    .fil0 {fill:#282829;fill-rule:nonzero}
   ]]>
  </style>
 </defs>
 <g id="Layer_x0020_1">
  <metadata id="CorelCorpID_0Corel-Layer"/>
  <path class="fil0" d="M2129.26 2896.04c0.1,16.06 -2.63,32.55 -8.27,48.08 -7.55,20.84 -19.91,39.18 -35.9,53.75 -10.49,9.52 -22.55,17.48 -35.84,23.42 -31.87,14.34 -66.88,15.52 -99.67,4.17 -15.76,-5.41 -30.51,-13.57 -43.35,-24.27l-989.75 -826.4c-5.31,-4.39 -117.28,-93.84 -133.05,-113.76 -9.75,-12.29 -16.81,-25.29 -21.5,-38.63 -6.67,-19.11 -8.63,-37.66 -6.54,-55.47 2.26,-19.19 8.92,-36.89 19.29,-53.03 6.47,-10.08 14.45,-19.18 23.65,-27.32 8.77,-7.8 18.59,-14.4 29.11,-19.93 16.79,-8.78 29.17,-12.75 48.56,-16.66 13.3,-2.69 29.05,-3.79 45.82,-3.98 34.65,-0.42 73.74,2.8 104.92,3.09 5.21,0.07 9.19,-0.06 42.98,-0.06 43.66,0 78.55,-0.34 104.7,-1 30.7,-0.74 60.69,-1.96 89.94,-3.67 40.65,-2.39 81.57,-5.65 121.85,-11.62 23.01,-3.39 45.62,-7.65 69.16,-13.26 17,-4.06 33.44,-8.62 49.31,-13.59 16.1,-5.11 31.16,-10.48 45.15,-16.14 34.42,-13.93 75.69,-35.65 105.46,-55.58 19.7,-13.16 37.53,-27.05 53.49,-41.63 15.52,-14.23 30.23,-30.07 44.12,-47.49 13.63,-17.14 25.8,-35.14 36.51,-54.08 11.08,-19.49 20.77,-40.01 29.06,-61.53 8.16,-21.18 15.14,-44.12 20.94,-68.77 5.9,-25.12 10.29,-51.07 13.16,-77.9 2.87,-26.74 4.29,-55.59 4.29,-86.6 0,-27.08 -1.18,-52.14 -3.56,-75.22 -2.5,-24.3 -6.16,-47.25 -10.97,-68.85 -4.65,-21.02 -10.77,-42.16 -18.33,-63.4 -7.3,-20.58 -15.73,-40.33 -25.27,-59.28 -9.79,-19.4 -20.41,-37.49 -31.85,-54.32 -11.13,-16.34 -24.03,-32.77 -38.75,-49.29 -14.45,-16.24 -29.62,-31.22 -45.49,-45.02 -16.04,-13.92 -33.79,-27.47 -53.26,-40.61l-10.58 -7.19c-8.56,-5.38 -17.24,-10.44 -26.08,-15.16 -11.55,-6.18 -25.13,-12.53 -40.77,-19.11 -16.12,-6.8 -30.82,-12.29 -44.05,-16.51 -14.55,-4.64 -30.07,-8.78 -46.56,-12.45 -16.08,-3.65 -34.38,-6.89 -54.92,-9.75 -19.71,-2.77 -42.3,-5.21 -67.77,-7.24 -27.44,-2.2 -54.18,-3.8 -80.25,-4.72 -24.8,-0.87 -55.7,-1.3 -92.65,-1.3l-544.3 0 0 2130.11c0,29.18 0.91,46.38 -11.8,75.3 -7.3,16.61 -17.63,31.25 -30.23,43.34 -12.53,12.04 -27.35,21.71 -43.66,28.29 -35.06,14.16 -72.95,13.18 -107.25,-2.32 -17.04,-7.68 -31.83,-18.65 -44.02,-32.07 -11.6,-12.76 -20.65,-27.65 -26.82,-43.91 -6.03,-15.95 -9.23,-32.85 -9.23,-49.94l0 -2281.03c0,-19.33 3.58,-37 9.81,-53.1 13.7,-35.46 40.89,-62.96 76.17,-77.16 19.29,-7.74 38.15,-10.51 54.21,-10.51l710.84 0c69.34,0 135.93,4.31 199.73,12.93 63.62,8.61 123.52,21.5 179.66,38.78 57.79,17.74 111.37,39.94 160.69,66.63 97.87,52.93 184.05,126.19 248.98,216.79 31.77,44.32 58.28,92.48 79.52,144.59 20.45,50.11 35.89,104.24 46.3,162.32 10.34,57.81 15.52,117.92 15.52,180.38 0,64.52 -5.45,126.3 -16.33,185.25 -10.89,58.95 -27.29,114.33 -49.24,166.09 -22.62,53.35 -50.66,102.22 -84.1,146.56 -33.58,44.48 -72.83,84.86 -117.76,121.13 -43.48,35.06 -92.16,65.88 -146.02,92.34 -52.78,25.94 -110.3,47.52 -172.59,64.64 -61.2,16.81 -125.92,29.34 -194.17,37.49 -33.17,3.98 -67.27,6.97 -102.33,9.04 62.14,54.36 140.54,119.7 224.33,188.1 157.85,128.86 327.23,262.57 449.02,358.71 55.02,43.42 95.82,75.6 99.15,78.24 24.61,19.56 51.95,38.59 73.1,62.02 20.48,22.68 32.49,46.83 35.55,75.65 0.5,4.76 0.77,9.6 0.78,14.6z"/>
 </g>
</svg>
